<?xml version="1.0" encoding="utf-8"?>
<!-- Generator: Adobe Illustrator 23.1.1, SVG Export Plug-In . SVG Version: 6.00 Build 0)  -->
<svg version="1.1" id="Layer_1" xmlns="http://www.w3.org/2000/svg" xmlns:xlink="http://www.w3.org/1999/xlink" x="0px" y="0px"
	 viewBox="0 0 595.3 595.3" style="enable-background:new 0 0 595.3 595.3;" xml:space="preserve">
<style type="text/css">
	.st0{fill:#ED1C24;}
	.st1{fill:none;}
	.st2{fill:#395F83;}
</style>
<image style="overflow:visible;" width="656" height="628" xlink:href="../../Downloads/long_revised.png"  transform="matrix(0.1331 0 0 0.1281 450.1539 152.6696)">
</image>
<g>
	<g>
		<path class="st0" d="M98,247.3c-1.7,0-3-0.4-4.1-1.1c-1.1-0.8-1.6-1.6-1.6-2.5v-34.2c0-1,0.5-1.9,1.6-2.5c1.1-0.6,2.4-1,4.1-1
			c1.4,0,2.6,0.3,3.6,1c1,0.6,1.5,1.5,1.5,2.5v2.6c1-1.7,2.5-3.2,4.4-4.6c1.9-1.4,4.4-2,7.3-2c2.5,0,4.8,0.8,6.7,2.4
			c1.9,1.6,3.4,3.7,4.3,6.3c1.5-3,3.5-5.1,5.9-6.6c2.4-1.4,4.8-2.1,7.4-2.1c2.7,0,5.3,0.7,7.6,2c2.4,1.4,4.3,3.4,5.8,6
			c1.5,2.6,2.3,5.8,2.3,9.6v20.5c0,0.9-0.6,1.8-1.7,2.5c-1.1,0.8-2.5,1.1-4.1,1.1c-1.5,0-2.9-0.4-4-1.1c-1.1-0.8-1.7-1.6-1.7-2.5
			v-20.5c0-1.7-0.3-3.2-1-4.3c-0.7-1.2-1.6-2-2.7-2.7c-1.1-0.6-2.3-0.9-3.4-0.9c-1.1,0-2.2,0.3-3.3,0.9c-1.1,0.6-1.9,1.5-2.7,2.7
			c-0.7,1.2-1.1,2.6-1.1,4.3v20.7c0,1.3-0.6,2.2-1.8,2.7c-1.2,0.6-2.5,0.8-3.9,0.8c-1.3,0-2.6-0.3-3.8-0.8c-1.2-0.5-1.9-1.5-1.9-2.7
			v-20.6c0-1.6-0.3-3-1-4.2c-0.7-1.2-1.6-2.1-2.7-2.7c-1.1-0.6-2.3-1-3.5-1c-1.2,0-2.3,0.3-3.4,0.9c-1.1,0.6-1.9,1.4-2.6,2.6
			c-0.7,1.2-1,2.6-1,4.3v20.5c0,0.9-0.6,1.8-1.7,2.5C101,246.9,99.6,247.3,98,247.3z"/>
		<path class="st0" d="M183.1,248.1c-4.2,0-7.9-0.7-11.1-2.2c-3.2-1.5-5.7-3.6-7.6-6.3c-1.8-2.7-2.7-5.8-2.7-9.3v-7.4
			c0-3.1,0.9-6,2.6-8.7c1.7-2.6,4.1-4.8,7-6.3c2.9-1.6,6.2-2.4,9.8-2.4c3.3,0,6.3,0.7,9.1,2.1c2.7,1.4,5,3.3,6.7,5.7
			c1.7,2.4,2.6,5.3,2.6,8.5c0,2.5-0.4,4.3-1.2,5.3c-0.8,1.1-1.9,1.7-3.1,2c-1.3,0.3-2.6,0.4-3.9,0.4h-17.9v1.3c0,2.5,1,4.5,2.9,6
			c1.9,1.5,4.4,2.3,7.5,2.3c1.9,0,3.6-0.3,4.9-0.9c1.3-0.6,2.4-1.1,3.4-1.7c0.9-0.5,1.8-0.8,2.7-0.8c0.9,0,1.6,0.3,2.3,0.9
			c0.6,0.6,1.1,1.3,1.5,2c0.4,0.8,0.5,1.5,0.5,2c0,1-0.6,2-1.9,3.2c-1.3,1.1-3.1,2.1-5.4,2.9C189.1,247.7,186.3,248.1,183.1,248.1z
			 M173.2,223h12.9c1,0,1.7-0.2,2.1-0.5c0.4-0.3,0.6-0.9,0.6-1.9c0-1.3-0.4-2.5-1.1-3.6c-0.7-1-1.7-1.9-2.8-2.4
			c-1.1-0.6-2.4-0.9-3.8-0.9c-1.4,0-2.6,0.3-3.8,0.8c-1.2,0.6-2.1,1.3-2.9,2.3c-0.7,1-1.1,2.2-1.1,3.6V223z"/>
		<path class="st0" d="M226,248.1c-4.2,0-7.9-0.7-11.1-2.2c-3.2-1.5-5.7-3.6-7.6-6.3c-1.8-2.7-2.7-5.8-2.7-9.3v-7.4
			c0-3.1,0.9-6,2.6-8.7c1.7-2.6,4.1-4.8,7-6.3c2.9-1.6,6.2-2.4,9.8-2.4c3.3,0,6.3,0.7,9.1,2.1c2.7,1.4,5,3.3,6.7,5.7
			c1.7,2.4,2.6,5.3,2.6,8.5c0,2.5-0.4,4.3-1.2,5.3c-0.8,1.1-1.9,1.7-3.1,2c-1.3,0.3-2.6,0.4-3.9,0.4H216v1.3c0,2.5,1,4.5,2.9,6
			c1.9,1.5,4.4,2.3,7.5,2.3c1.9,0,3.6-0.3,4.9-0.9c1.3-0.6,2.4-1.1,3.4-1.7c0.9-0.5,1.8-0.8,2.7-0.8c0.9,0,1.6,0.3,2.3,0.9
			c0.6,0.6,1.1,1.3,1.5,2c0.4,0.8,0.5,1.5,0.5,2c0,1-0.6,2-1.9,3.2c-1.3,1.1-3.1,2.1-5.4,2.9C231.9,247.7,229.2,248.1,226,248.1z
			 M216,223h12.9c1,0,1.7-0.2,2.1-0.5c0.4-0.3,0.6-0.9,0.6-1.9c0-1.3-0.4-2.5-1.1-3.6c-0.7-1-1.7-1.9-2.8-2.4
			c-1.1-0.6-2.4-0.9-3.8-0.9c-1.4,0-2.6,0.3-3.8,0.8c-1.2,0.6-2.1,1.3-2.9,2.3c-0.7,1-1.1,2.2-1.1,3.6V223z"/>
		<path class="st0" d="M265.3,247.3c-5.3,0-9.4-1.1-12.2-3.4c-2.8-2.3-4.2-5.9-4.2-10.8v-42.1c0-1,0.6-1.9,1.9-2.5
			c1.2-0.6,2.5-1,3.8-1c1.4,0,2.7,0.3,3.9,1c1.2,0.6,1.8,1.5,1.8,2.5v15h10.4c0.9,0,1.7,0.4,2.2,1.3c0.5,0.8,0.8,1.8,0.8,2.8
			c0,1-0.3,2-0.8,2.8c-0.5,0.8-1.2,1.3-2.2,1.3h-10.4v19c0,1.7,0.4,3,1.1,3.7c0.7,0.7,2,1,3.8,1h3.4c1.6,0,2.9,0.5,3.7,1.5
			c0.8,1,1.2,2.1,1.2,3.2c0,1.2-0.4,2.3-1.2,3.3c-0.8,1-2,1.5-3.7,1.5H265.3z"/>
		<path class="st0" d="M281.8,231.1c-1.1,0-1.9-0.4-2.6-1.3c-0.7-0.9-1-2-1-3.3c0-1.3,0.3-2.4,1-3.3c0.7-0.9,1.5-1.3,2.6-1.3h23
			c0.9,0,1.7,0.4,2.5,1.3c0.8,0.9,1.1,2,1.1,3.3c0,1.3-0.4,2.4-1.1,3.3c-0.8,0.9-1.6,1.3-2.5,1.3H281.8z"/>
		<path class="st0" d="M334.6,248.1c-3.5,0-6.8-0.8-9.7-2.5c-2.9-1.7-5.2-3.8-7-6.5s-2.6-5.6-2.6-8.7v-20.9c0-0.9,0.6-1.7,1.7-2.4
			c1.1-0.8,2.5-1.1,4-1.1c1.5,0,2.9,0.4,4,1.1c1.1,0.8,1.7,1.6,1.7,2.4v20.9c0,1.3,0.4,2.6,1.1,3.7c0.7,1.2,1.6,2.1,2.8,2.9
			c1.2,0.8,2.5,1.2,3.9,1.2c1.5,0,2.8-0.4,3.9-1.1c1.1-0.8,2.1-1.7,2.8-2.9c0.7-1.2,1.1-2.4,1.1-3.8v-21c0-0.9,0.6-1.7,1.7-2.4
			c1.1-0.7,2.5-1,3.9-1c1.7,0,3.1,0.3,4.2,1c1.1,0.7,1.6,1.5,1.6,2.4v21c0,3.1-0.9,6-2.6,8.7c-1.7,2.7-4.1,4.9-7,6.5
			C341.2,247.3,338.1,248.1,334.6,248.1z"/>
		<path class="st0" d="M367.8,266.5c-1.6,0-2.9-0.4-4-1.1c-1.1-0.8-1.6-1.6-1.6-2.4v-53.5c0-1,0.5-1.9,1.6-2.5c1.1-0.6,2.4-1,3.9-1
			c1.5,0,2.8,0.3,3.8,1c1,0.6,1.5,1.5,1.5,2.5v2.6c1-1.7,2.5-3.2,4.6-4.6c2.1-1.4,4.5-2,7.3-2c3,0,5.7,0.8,8.1,2.4
			c2.4,1.6,4.3,3.7,5.7,6.4c1.4,2.7,2.1,5.6,2.1,8.9v7.1c0,3.1-0.7,6-2.1,8.7c-1.4,2.7-3.3,4.9-5.6,6.6c-2.3,1.7-4.9,2.5-7.7,2.5
			c-2.6,0-5-0.7-7.1-2.1c-2.1-1.4-3.6-3-4.5-4.8V263c0,0.9-0.6,1.7-1.7,2.4C370.8,266.2,369.4,266.5,367.8,266.5z M381.5,238.3
			c1.4,0,2.7-0.4,3.8-1.2c1.1-0.8,2.1-1.8,2.8-3c0.7-1.2,1.1-2.5,1.1-3.8v-7.1c0-1.3-0.4-2.6-1.1-3.7c-0.7-1.2-1.7-2.1-2.9-2.9
			c-1.2-0.8-2.5-1.2-4-1.2c-1.3,0-2.5,0.3-3.7,1c-1.1,0.6-2.1,1.5-2.9,2.7c-0.8,1.2-1.1,2.6-1.1,4.2v8.7c0,0.6,0.3,1.4,1,2.4
			c0.7,1,1.6,1.9,2.8,2.8C378.6,237.9,380,238.3,381.5,238.3z"/>
		<path class="st0" d="M413.5,247.8c-1.7,0-3.1-0.6-4.3-1.8c-1.1-1.2-1.7-2.6-1.7-4.1c0-1.6,0.6-3,1.7-4.2c1.1-1.2,2.6-1.7,4.3-1.7
			c1.6,0,3,0.6,4.2,1.7c1.2,1.2,1.8,2.6,1.8,4.2c0,1.6-0.6,2.9-1.8,4.1C416.5,247.2,415.1,247.8,413.5,247.8z M413.4,229.8
			c-1.2,0-2.2-0.3-3.1-0.8c-0.9-0.5-1.3-1.4-1.3-2.5c0-3.8-0.1-8-0.3-12.4c-0.2-4.5-0.4-8.9-0.6-13.4c-0.2-4.5-0.3-8.6-0.3-12.4
			c0-1.5,0.5-2.7,1.6-3.5c1.1-0.8,2.4-1.3,4-1.3c1.5,0,2.8,0.4,3.8,1.3c1.1,0.8,1.6,2,1.6,3.5c0,3.8-0.1,8-0.3,12.4
			c-0.2,4.5-0.4,8.9-0.6,13.4c-0.2,4.5-0.3,8.6-0.3,12.4c0,1.2-0.5,2-1.5,2.5C415.2,229.5,414.3,229.8,413.4,229.8z"/>
	</g>
</g>
<g>
	<g>
	</g>
</g>
<g>
	<g>
	</g>
</g>
<rect x="352.4" y="125" class="st1" width="1.5" height="5.2"/>
<g>
	<g>
		<path class="st2" d="M44.3,100.2c-2.6,0-4.9-0.4-7-1.1c-2.1-0.7-3.8-1.7-5-2.8c-1.2-1.1-1.8-2.3-1.8-3.4c0-0.6,0.1-1.2,0.5-1.8
			c0.3-0.6,0.7-1.2,1.2-1.7c0.5-0.5,1.1-0.7,1.7-0.7c0.6,0,1.2,0.2,1.8,0.7c0.6,0.5,1.2,1,1.9,1.6c0.7,0.6,1.6,1.1,2.6,1.6
			c1,0.5,2.3,0.7,3.8,0.7c1.2,0,2.3-0.2,3.3-0.6c1-0.4,1.8-0.9,2.5-1.7c0.6-0.7,0.9-1.7,0.9-2.9c0-1.3-0.3-2.3-1-3.2
			c-0.7-0.9-1.6-1.6-2.8-2.2c-1.2-0.6-2.4-1.2-3.8-1.8c-1.4-0.6-2.7-1.2-4.1-1.9c-1.4-0.7-2.6-1.5-3.8-2.4c-1.1-0.9-2.1-2.1-2.8-3.5
			c-0.7-1.4-1-3.1-1-5.1c0-2.2,0.4-4.1,1.3-5.5c0.9-1.5,2-2.7,3.4-3.6c1.4-0.9,3-1.6,4.7-2c1.7-0.4,3.4-0.6,5.2-0.6
			c0.9,0,2,0.1,3.3,0.2c1.3,0.1,2.5,0.4,3.8,0.7s2.3,0.8,3.1,1.4c0.8,0.6,1.2,1.4,1.2,2.4c0,0.4-0.1,1-0.3,1.6
			c-0.2,0.6-0.6,1.2-1,1.7c-0.5,0.5-1,0.8-1.8,0.8c-0.6,0-1.3-0.2-1.9-0.6c-0.6-0.4-1.4-0.7-2.4-1.1c-1-0.4-2.3-0.6-4-0.6
			c-1.4,0-2.6,0.2-3.7,0.5c-1,0.4-1.8,0.9-2.3,1.5c-0.5,0.6-0.8,1.5-0.8,2.4c0,1,0.3,1.9,1,2.6c0.7,0.7,1.6,1.3,2.8,1.9
			c1.1,0.6,2.4,1.1,3.7,1.7c1.4,0.6,2.7,1.2,4.1,1.9c1.4,0.7,2.6,1.6,3.8,2.6c1.2,1,2.1,2.3,2.8,3.8c0.7,1.5,1,3.4,1,5.6
			c0,2.8-0.6,5.1-1.9,7.1c-1.2,1.9-2.9,3.3-5.1,4.3C49.5,99.7,47.1,100.2,44.3,100.2z"/>
		<path class="st2" d="M75.4,100.2c-3,0-5.5-0.5-7.4-1.6s-3.3-2.5-4.3-4.3c-0.9-1.8-1.4-3.9-1.4-6.2v-4.7c0-2.3,0.4-4.3,1.3-6.2
			c0.9-1.8,2.3-3.3,4.3-4.3c1.9-1.1,4.4-1.6,7.3-1.6c1.9,0,3.5,0.2,5,0.6c1.4,0.4,2.6,1,3.4,1.7s1.3,1.5,1.3,2.2
			c0,0.5-0.1,1-0.4,1.6c-0.3,0.6-0.6,1.1-1.1,1.5c-0.5,0.4-1,0.6-1.6,0.6c-0.4,0-0.9-0.1-1.3-0.4c-0.5-0.3-1-0.6-1.8-0.8
			c-0.7-0.3-1.7-0.4-2.9-0.4c-2,0-3.5,0.5-4.4,1.4c-0.9,1-1.4,2.3-1.4,4v4.7c0,1.7,0.5,3,1.4,4c0.9,1,2.4,1.4,4.5,1.4
			c1.2,0,2.2-0.2,2.9-0.5c0.7-0.3,1.2-0.6,1.7-0.9c0.5-0.3,0.9-0.4,1.4-0.4c0.7,0,1.3,0.2,1.8,0.6c0.5,0.4,0.9,0.9,1.1,1.4
			c0.3,0.6,0.4,1.1,0.4,1.6c0,0.8-0.4,1.6-1.3,2.3c-0.9,0.7-2,1.4-3.5,1.8C78.9,99.9,77.2,100.2,75.4,100.2z"/>
		<path class="st2" d="M93.1,65.4c-1.2,0-2.2-0.4-3-1.2c-0.8-0.8-1.3-1.6-1.3-2.6c0-1,0.4-1.9,1.3-2.6c0.8-0.7,1.8-1.1,3-1.1
			c1.2,0,2.1,0.4,3,1.1c0.8,0.7,1.2,1.6,1.2,2.6c0,0.9-0.4,1.8-1.2,2.6C95.3,65,94.3,65.4,93.1,65.4z M93.1,99.7
			c-1.1,0-2-0.3-2.8-0.8c-0.7-0.5-1.1-1.1-1.1-1.7V74c0-0.7,0.4-1.3,1.1-1.7c0.7-0.4,1.6-0.6,2.8-0.6c1.1,0,2,0.2,2.8,0.6
			c0.8,0.4,1.1,1,1.1,1.7v23.2c0,0.6-0.4,1.2-1.1,1.7C95.1,99.4,94.2,99.7,93.1,99.7z"/>
		<path class="st2" d="M116.4,100.2c-2.8,0-5.3-0.5-7.5-1.5c-2.2-1-3.9-2.4-5.1-4.2c-1.2-1.8-1.9-3.9-1.9-6.3v-5
			c0-2.1,0.6-4.1,1.8-5.9c1.2-1.8,2.8-3.2,4.7-4.3c2-1.1,4.2-1.6,6.6-1.6c2.2,0,4.3,0.5,6.1,1.4c1.9,0.9,3.4,2.2,4.5,3.9
			c1.2,1.7,1.7,3.6,1.7,5.8c0,1.7-0.3,2.9-0.8,3.6c-0.6,0.7-1.3,1.2-2.1,1.4c-0.9,0.2-1.7,0.3-2.7,0.3h-12.2v0.9
			c0,1.7,0.6,3.1,1.9,4.1c1.3,1,3,1.6,5.1,1.6c1.3,0,2.4-0.2,3.3-0.6c0.9-0.4,1.6-0.8,2.3-1.1c0.6-0.4,1.2-0.5,1.8-0.5
			c0.6,0,1.1,0.2,1.6,0.6c0.4,0.4,0.8,0.9,1,1.4c0.2,0.5,0.4,1,0.4,1.4c0,0.7-0.4,1.4-1.3,2.2c-0.9,0.8-2.1,1.4-3.7,1.9
			C120.4,99.9,118.6,100.2,116.4,100.2z M109.6,83.1h8.8c0.7,0,1.1-0.1,1.4-0.3c0.3-0.2,0.4-0.6,0.4-1.3c0-0.9-0.3-1.7-0.8-2.4
			c-0.5-0.7-1.1-1.3-1.9-1.7c-0.8-0.4-1.6-0.6-2.6-0.6c-0.9,0-1.8,0.2-2.6,0.6c-0.8,0.4-1.5,0.9-1.9,1.6c-0.5,0.7-0.8,1.5-0.8,2.4
			V83.1z"/>
		<path class="st2" d="M135.9,99.7c-1.1,0-2-0.3-2.8-0.8c-0.7-0.5-1.1-1.1-1.1-1.7V74c0-0.7,0.4-1.3,1.1-1.7
			c0.7-0.4,1.6-0.6,2.8-0.6c1,0,1.8,0.2,2.4,0.6c0.7,0.4,1,1,1,1.7v1.8c0.6-1.1,1.6-2.2,3-3.1c1.4-0.9,3.1-1.4,5.1-1.4
			c1.9,0,3.6,0.5,5.2,1.6c1.6,1.1,2.8,2.5,3.7,4.3c0.9,1.8,1.4,3.8,1.4,6v13.9c0,0.8-0.4,1.4-1.2,1.9c-0.8,0.4-1.7,0.6-2.7,0.6
			c-0.9,0-1.7-0.2-2.6-0.6s-1.3-1-1.3-1.9V83.3c0-0.9-0.2-1.8-0.7-2.5c-0.5-0.8-1.1-1.4-1.9-2c-0.8-0.5-1.7-0.8-2.6-0.8
			c-0.8,0-1.6,0.2-2.3,0.6c-0.8,0.4-1.4,1-1.9,1.8c-0.5,0.8-0.7,1.7-0.7,2.8v13.9c0,0.6-0.4,1.2-1.1,1.7
			C137.9,99.4,137,99.7,135.9,99.7z"/>
		<path class="st2" d="M175.5,100.2c-3,0-5.5-0.5-7.4-1.6s-3.3-2.5-4.3-4.3c-0.9-1.8-1.4-3.9-1.4-6.2v-4.7c0-2.3,0.4-4.3,1.3-6.2
			c0.9-1.8,2.3-3.3,4.3-4.3c1.9-1.1,4.4-1.6,7.3-1.6c1.9,0,3.5,0.2,5,0.6c1.4,0.4,2.6,1,3.4,1.7s1.3,1.5,1.3,2.2
			c0,0.5-0.1,1-0.4,1.6c-0.3,0.6-0.6,1.1-1.1,1.5c-0.5,0.4-1,0.6-1.6,0.6c-0.4,0-0.9-0.1-1.3-0.4c-0.5-0.3-1-0.6-1.8-0.8
			c-0.7-0.3-1.7-0.4-2.9-0.4c-2,0-3.5,0.5-4.4,1.4c-0.9,1-1.4,2.3-1.4,4v4.7c0,1.7,0.5,3,1.4,4c0.9,1,2.4,1.4,4.5,1.4
			c1.2,0,2.2-0.2,2.9-0.5c0.7-0.3,1.2-0.6,1.7-0.9c0.5-0.3,0.9-0.4,1.4-0.4c0.7,0,1.3,0.2,1.8,0.6c0.5,0.4,0.9,0.9,1.1,1.4
			c0.3,0.6,0.4,1.1,0.4,1.6c0,0.8-0.4,1.6-1.3,2.3c-0.9,0.7-2,1.4-3.5,1.8C179,99.9,177.4,100.2,175.5,100.2z"/>
		<path class="st2" d="M202.8,100.2c-2.8,0-5.3-0.5-7.5-1.5c-2.2-1-3.9-2.4-5.1-4.2c-1.2-1.8-1.9-3.9-1.9-6.3v-5
			c0-2.1,0.6-4.1,1.8-5.9c1.2-1.8,2.8-3.2,4.7-4.3c2-1.1,4.2-1.6,6.6-1.6c2.2,0,4.3,0.5,6.1,1.4c1.9,0.9,3.4,2.2,4.5,3.9
			c1.2,1.7,1.7,3.6,1.7,5.8c0,1.7-0.3,2.9-0.8,3.6c-0.6,0.7-1.3,1.2-2.1,1.4c-0.9,0.2-1.7,0.3-2.7,0.3h-12.2v0.9
			c0,1.7,0.6,3.1,1.9,4.1c1.3,1,3,1.6,5.1,1.6c1.3,0,2.4-0.2,3.3-0.6c0.9-0.4,1.6-0.8,2.3-1.1c0.6-0.4,1.2-0.5,1.8-0.5
			c0.6,0,1.1,0.2,1.6,0.6c0.4,0.4,0.8,0.9,1,1.4c0.2,0.5,0.4,1,0.4,1.4c0,0.7-0.4,1.4-1.3,2.2c-0.9,0.8-2.1,1.4-3.7,1.9
			C206.9,99.9,205,100.2,202.8,100.2z M196.1,83.1h8.8c0.7,0,1.1-0.1,1.4-0.3c0.3-0.2,0.4-0.6,0.4-1.3c0-0.9-0.3-1.7-0.8-2.4
			c-0.5-0.7-1.1-1.3-1.9-1.7c-0.8-0.4-1.6-0.6-2.6-0.6c-0.9,0-1.8,0.2-2.6,0.6c-0.8,0.4-1.5,0.9-1.9,1.6c-0.5,0.7-0.8,1.5-0.8,2.4
			V83.1z"/>
		<path class="st2" d="M234.3,99.7c-1.1,0-2-0.2-2.7-0.7c-0.7-0.5-1.1-1-1.1-1.7V66.9c0-2.2,0.5-4.2,1.4-5.9c1-1.8,2.2-3.1,3.8-4.1
			c1.6-1,3.4-1.5,5.3-1.5h3.5c1,0,1.7,0.3,2.2,1c0.5,0.7,0.8,1.4,0.8,2.2c0,0.9-0.3,1.6-0.8,2.3c-0.5,0.6-1.2,1-2.2,1h-1.9
			c-0.8,0-1.6,0.2-2.3,0.5c-0.7,0.4-1.2,0.8-1.6,1.5c-0.4,0.6-0.6,1.4-0.6,2.3v5.6h7.3c0.6,0,1.1,0.3,1.5,0.9
			c0.3,0.6,0.5,1.2,0.5,1.9s-0.2,1.3-0.5,1.9c-0.3,0.6-0.8,0.9-1.5,0.9h-7.3v20.1c0,0.7-0.4,1.3-1.2,1.7
			C236.3,99.4,235.4,99.7,234.3,99.7z"/>
		<path class="st2" d="M262.8,100.2c-2.3,0-4.5-0.6-6.4-1.7c-2-1.1-3.5-2.6-4.7-4.5c-1.2-1.8-1.8-3.8-1.8-6v-4.8
			c0-2.1,0.6-4.1,1.7-5.9c1.2-1.8,2.7-3.3,4.7-4.4c2-1.1,4.1-1.7,6.5-1.7c2.4,0,4.5,0.5,6.5,1.6c2,1.1,3.5,2.5,4.7,4.3
			c1.2,1.8,1.8,3.8,1.8,6v4.8c0,2.1-0.6,4.1-1.8,5.9c-1.2,1.8-2.8,3.3-4.8,4.5C267.2,99.6,265.1,100.2,262.8,100.2z M262.8,93.5
			c1,0,1.8-0.3,2.6-0.8c0.8-0.5,1.4-1.2,1.9-2c0.5-0.8,0.7-1.7,0.7-2.6v-4.8c0-0.9-0.2-1.8-0.7-2.5c-0.5-0.8-1.1-1.4-1.9-2
			c-0.8-0.5-1.7-0.8-2.7-0.8c-1,0-1.8,0.3-2.6,0.8c-0.8,0.5-1.4,1.2-1.9,2c-0.5,0.8-0.7,1.7-0.7,2.6v4.8c0,0.9,0.2,1.8,0.7,2.6
			c0.5,0.8,1.1,1.5,1.9,2C260.9,93.3,261.8,93.5,262.8,93.5z"/>
		<path class="st2" d="M284.5,99.7c-1.1,0-2-0.3-2.7-0.8c-0.7-0.5-1.1-1.1-1.1-1.7V74c0-0.7,0.4-1.3,1.1-1.7
			c0.7-0.4,1.6-0.6,2.7-0.6c1,0,1.8,0.2,2.5,0.6c0.7,0.4,1,1,1,1.7v2.4c0.4-0.9,1-1.7,1.8-2.4c0.7-0.8,1.6-1.4,2.5-1.9
			c1-0.5,2-0.8,3.1-0.8h1.9c0.8,0,1.4,0.3,2,1c0.6,0.6,0.8,1.4,0.8,2.3c0,0.9-0.3,1.7-0.8,2.4c-0.6,0.6-1.2,1-2,1h-1.9
			c-1.1,0-2.2,0.4-3.3,1.1c-1.1,0.7-1.9,1.7-2.6,3c-0.7,1.3-1,2.8-1,4.6v10.5c0,0.6-0.4,1.2-1.1,1.7
			C286.5,99.4,285.6,99.7,284.5,99.7z"/>
		<path class="st2" d="M326.2,99.7c-3.6,0-6.3-0.8-8.2-2.3c-1.9-1.5-2.8-4-2.8-7.3V61.5c0-0.7,0.4-1.3,1.3-1.7
			c0.8-0.4,1.7-0.6,2.6-0.6c1,0,1.8,0.2,2.7,0.6c0.8,0.4,1.2,1,1.2,1.7v10.1h7.1c0.6,0,1.1,0.3,1.5,0.9c0.3,0.6,0.5,1.2,0.5,1.9
			s-0.2,1.3-0.5,1.9c-0.3,0.6-0.8,0.9-1.5,0.9h-7.1V90c0,1.2,0.2,2,0.8,2.5c0.5,0.5,1.4,0.7,2.6,0.7h2.3c1.1,0,2,0.3,2.5,1
			c0.5,0.7,0.8,1.4,0.8,2.2c0,0.8-0.3,1.6-0.8,2.2c-0.5,0.7-1.4,1-2.5,1H326.2z"/>
		<path class="st2" d="M339.7,99.7c-1.1,0-2-0.3-2.8-0.8c-0.7-0.5-1.1-1.1-1.1-1.7V57.6c0-0.7,0.4-1.3,1.1-1.7
			c0.7-0.4,1.6-0.6,2.8-0.6c1.1,0,2,0.2,2.8,0.6c0.8,0.4,1.1,1,1.1,1.7v18.1c0.6-1.1,1.5-2.2,2.8-3.1c1.3-0.9,2.9-1.4,4.7-1.4
			c1.9,0,3.6,0.5,5.2,1.6c1.6,1.1,2.8,2.5,3.7,4.3c0.9,1.8,1.4,3.8,1.4,6v13.9c0,0.8-0.4,1.4-1.2,1.9c-0.8,0.4-1.7,0.6-2.7,0.6
			c-0.9,0-1.7-0.2-2.6-0.6s-1.3-1-1.3-1.9V83.3c0-0.9-0.2-1.8-0.7-2.5c-0.5-0.8-1.1-1.4-1.9-2c-0.8-0.5-1.6-0.8-2.6-0.8
			c-0.8,0-1.6,0.2-2.3,0.6c-0.8,0.4-1.4,1-1.9,1.8c-0.5,0.8-0.7,1.7-0.7,2.8v13.9c0,0.6-0.4,1.2-1.1,1.7
			C341.7,99.4,340.8,99.7,339.7,99.7z"/>
		<path class="st2" d="M380.7,100.2c-2.8,0-5.3-0.5-7.5-1.5s-3.9-2.4-5.1-4.2c-1.2-1.8-1.9-3.9-1.9-6.3v-5c0-2.1,0.6-4.1,1.8-5.9
			c1.2-1.8,2.8-3.2,4.7-4.3c2-1.1,4.2-1.6,6.6-1.6c2.2,0,4.3,0.5,6.1,1.4c1.9,0.9,3.4,2.2,4.5,3.9c1.2,1.7,1.7,3.6,1.7,5.8
			c0,1.7-0.3,2.9-0.8,3.6c-0.6,0.7-1.3,1.2-2.1,1.4c-0.9,0.2-1.8,0.3-2.7,0.3h-12.2v0.9c0,1.7,0.6,3.1,1.9,4.1c1.3,1,3,1.6,5.1,1.6
			c1.3,0,2.4-0.2,3.3-0.6c0.9-0.4,1.6-0.8,2.3-1.1c0.6-0.4,1.2-0.5,1.8-0.5c0.6,0,1.1,0.2,1.6,0.6c0.4,0.4,0.8,0.9,1,1.4
			c0.2,0.5,0.4,1,0.4,1.4c0,0.7-0.4,1.4-1.3,2.2c-0.9,0.8-2.1,1.4-3.7,1.9C384.7,99.9,382.8,100.2,380.7,100.2z M373.9,83.1h8.8
			c0.7,0,1.1-0.1,1.4-0.3c0.3-0.2,0.4-0.6,0.4-1.3c0-0.9-0.2-1.7-0.8-2.4c-0.5-0.7-1.1-1.3-1.9-1.7c-0.8-0.4-1.6-0.6-2.6-0.6
			c-0.9,0-1.8,0.2-2.6,0.6c-0.8,0.4-1.4,0.9-1.9,1.6c-0.5,0.7-0.8,1.5-0.8,2.4V83.1z"/>
		<path class="st2" d="M412.9,99.7c-1,0-1.9-0.2-2.7-0.6c-0.8-0.4-1.2-1-1.2-1.9V58.9c0-0.7,0.3-1.2,0.8-1.7
			c0.6-0.5,1.3-0.7,2.2-0.7h12c2.6,0,4.9,0.4,6.9,1.3c2.1,0.9,3.7,2.3,4.9,4.2c1.2,1.9,1.8,4.5,1.8,7.8v0.4c0,3.2-0.6,5.8-1.9,7.8
			c-1.2,2-2.9,3.4-5.1,4.3c-2.1,0.9-4.5,1.3-7.2,1.3h-6.7v13.6c0,0.8-0.4,1.4-1.2,1.9C414.7,99.4,413.9,99.7,412.9,99.7z
			 M416.7,77.5h6.7c2,0,3.5-0.6,4.6-1.7c1.1-1.1,1.7-2.8,1.7-5.1v-0.6c0-2.3-0.6-4-1.7-5.2c-1.1-1.1-2.7-1.7-4.6-1.7h-6.7V77.5z"/>
		<path class="st2" d="M455.2,100.2c-2.8,0-5.3-0.5-7.5-1.5s-3.9-2.4-5.1-4.2c-1.2-1.8-1.9-3.9-1.9-6.3v-5c0-2.1,0.6-4.1,1.8-5.9
			c1.2-1.8,2.8-3.2,4.7-4.3c2-1.1,4.2-1.6,6.6-1.6c2.2,0,4.3,0.5,6.1,1.4c1.9,0.9,3.4,2.2,4.5,3.9c1.2,1.7,1.7,3.6,1.7,5.8
			c0,1.7-0.3,2.9-0.8,3.6c-0.6,0.7-1.3,1.2-2.1,1.4c-0.9,0.2-1.8,0.3-2.7,0.3h-12.2v0.9c0,1.7,0.6,3.1,1.9,4.1c1.3,1,3,1.6,5.1,1.6
			c1.3,0,2.4-0.2,3.3-0.6c0.9-0.4,1.6-0.8,2.3-1.1c0.6-0.4,1.2-0.5,1.8-0.5c0.6,0,1.1,0.2,1.6,0.6c0.4,0.4,0.8,0.9,1,1.4
			c0.2,0.5,0.4,1,0.4,1.4c0,0.7-0.4,1.4-1.3,2.2c-0.9,0.8-2.1,1.4-3.7,1.9C459.2,99.9,457.3,100.2,455.2,100.2z M448.4,83.1h8.8
			c0.7,0,1.1-0.1,1.4-0.3c0.3-0.2,0.4-0.6,0.4-1.3c0-0.9-0.2-1.7-0.8-2.4c-0.5-0.7-1.1-1.3-1.9-1.7c-0.8-0.4-1.6-0.6-2.6-0.6
			c-0.9,0-1.8,0.2-2.6,0.6c-0.8,0.4-1.4,0.9-1.9,1.6c-0.5,0.7-0.8,1.5-0.8,2.4V83.1z"/>
		<path class="st2" d="M482.7,100.2c-2.3,0-4.5-0.6-6.4-1.7c-2-1.1-3.5-2.6-4.7-4.5c-1.2-1.8-1.8-3.8-1.8-6v-4.8
			c0-2.1,0.6-4.1,1.7-5.9c1.2-1.8,2.7-3.3,4.7-4.4c2-1.1,4.1-1.7,6.5-1.7c2.4,0,4.5,0.5,6.5,1.6c2,1.1,3.5,2.5,4.7,4.3
			c1.2,1.8,1.8,3.8,1.8,6v4.8c0,2.1-0.6,4.1-1.8,5.9c-1.2,1.8-2.8,3.3-4.8,4.5C487.2,99.6,485,100.2,482.7,100.2z M482.7,93.5
			c1,0,1.8-0.3,2.6-0.8c0.8-0.5,1.4-1.2,1.9-2c0.5-0.8,0.7-1.7,0.7-2.6v-4.8c0-0.9-0.2-1.8-0.7-2.5c-0.5-0.8-1.1-1.4-1.9-2
			c-0.8-0.5-1.7-0.8-2.7-0.8c-1,0-1.8,0.3-2.6,0.8c-0.8,0.5-1.4,1.2-1.9,2c-0.5,0.8-0.7,1.7-0.7,2.6v4.8c0,0.9,0.2,1.8,0.7,2.6
			c0.5,0.8,1.1,1.5,1.9,2C480.9,93.3,481.8,93.5,482.7,93.5z"/>
		<path class="st2" d="M504.5,112.7c-1.1,0-2-0.3-2.7-0.8c-0.7-0.5-1.1-1.1-1.1-1.7V74c0-0.7,0.4-1.3,1.1-1.7
			c0.7-0.4,1.6-0.6,2.6-0.6c1,0,1.9,0.2,2.5,0.6c0.7,0.4,1,1,1,1.7v1.8c0.7-1.1,1.7-2.2,3.1-3.1c1.4-0.9,3.1-1.4,5-1.4
			c2,0,3.9,0.5,5.5,1.6c1.6,1.1,2.9,2.5,3.8,4.3c0.9,1.8,1.4,3.8,1.4,6v4.8c0,2.1-0.5,4.1-1.4,5.9c-1,1.8-2.2,3.3-3.8,4.5
			c-1.6,1.1-3.3,1.7-5.2,1.7c-1.8,0-3.4-0.5-4.8-1.4c-1.4-0.9-2.5-2-3.1-3.2v14.8c0,0.6-0.4,1.1-1.1,1.7
			C506.5,112.4,505.6,112.7,504.5,112.7z M513.8,93.5c1,0,1.8-0.3,2.6-0.8c0.8-0.5,1.4-1.2,1.9-2c0.5-0.8,0.8-1.7,0.8-2.6v-4.8
			c0-0.9-0.2-1.8-0.7-2.5c-0.5-0.8-1.1-1.4-1.9-2c-0.8-0.5-1.7-0.8-2.7-0.8c-0.9,0-1.7,0.2-2.5,0.6c-0.8,0.4-1.4,1-1.9,1.8
			c-0.5,0.8-0.8,1.7-0.8,2.8v5.9c0,0.4,0.2,0.9,0.7,1.6c0.5,0.7,1.1,1.3,1.9,1.9C511.8,93.2,512.7,93.5,513.8,93.5z"/>
		<path class="st2" d="M536.2,99.7c-1.1,0-2-0.3-2.8-0.8c-0.7-0.5-1.1-1.1-1.1-1.7V57.6c0-0.7,0.4-1.3,1.1-1.7
			c0.7-0.4,1.6-0.6,2.8-0.6c1.1,0,2,0.2,2.8,0.6c0.8,0.4,1.1,1,1.1,1.7v39.5c0,0.6-0.4,1.2-1.1,1.7
			C538.2,99.4,537.2,99.7,536.2,99.7z"/>
		<path class="st2" d="M560,100.2c-2.8,0-5.3-0.5-7.5-1.5s-3.9-2.4-5.1-4.2c-1.2-1.8-1.9-3.9-1.9-6.3v-5c0-2.1,0.6-4.1,1.8-5.9
			c1.2-1.8,2.8-3.2,4.7-4.3c2-1.1,4.2-1.6,6.6-1.6c2.2,0,4.3,0.5,6.1,1.4c1.9,0.9,3.4,2.2,4.5,3.9c1.2,1.7,1.7,3.6,1.7,5.8
			c0,1.7-0.3,2.9-0.8,3.6c-0.6,0.7-1.3,1.2-2.1,1.4c-0.9,0.2-1.8,0.3-2.7,0.3h-12.2v0.9c0,1.7,0.6,3.1,1.9,4.1c1.3,1,3,1.6,5.1,1.6
			c1.3,0,2.4-0.2,3.3-0.6c0.9-0.4,1.6-0.8,2.3-1.1c0.6-0.4,1.2-0.5,1.8-0.5c0.6,0,1.1,0.2,1.6,0.6c0.4,0.4,0.8,0.9,1,1.4
			c0.2,0.5,0.4,1,0.4,1.4c0,0.7-0.4,1.4-1.3,2.2c-0.9,0.8-2.1,1.4-3.7,1.9C564.1,99.9,562.2,100.2,560,100.2z M553.3,83.1h8.8
			c0.7,0,1.1-0.1,1.4-0.3c0.3-0.2,0.4-0.6,0.4-1.3c0-0.9-0.2-1.7-0.8-2.4c-0.5-0.7-1.1-1.3-1.9-1.7c-0.8-0.4-1.6-0.6-2.6-0.6
			c-0.9,0-1.8,0.2-2.6,0.6c-0.8,0.4-1.4,0.9-1.9,1.6c-0.5,0.7-0.8,1.5-0.8,2.4V83.1z"/>
	</g>
</g>
<g>
	<g>
		<path class="st0" d="M99,184.7c-1.4,0-2.7-0.3-3.9-0.9c-1.2-0.6-1.8-1.5-1.8-2.7v-54.3c0-2.1,0.6-3.5,1.8-4.4
			c1.2-0.8,2.5-1.3,3.9-1.3c1.4,0,2.6,0.1,3.6,0.4c1,0.3,1.9,0.9,2.7,1.7c0.9,0.9,1.8,2.1,2.7,3.8l10.9,19.5l10.8-19.5
			c1.1-1.7,2-3,2.8-3.8c0.8-0.9,1.7-1.4,2.7-1.7c1-0.3,2.2-0.4,3.5-0.4c1.5,0,2.8,0.4,4,1.3c1.2,0.8,1.8,2.3,1.8,4.4V181
			c0,1.2-0.6,2.1-1.8,2.7c-1.2,0.6-2.5,0.9-3.9,0.9s-2.7-0.3-3.9-0.9c-1.2-0.6-1.8-1.5-1.8-2.7v-37.3l-10.3,18.1
			c-0.5,0.8-1.1,1.4-1.9,1.8c-0.7,0.4-1.4,0.6-2.1,0.6c-0.6,0-1.3-0.2-2-0.5c-0.7-0.3-1.3-1-1.8-1.8l-10.2-18.7V181
			c0,1.2-0.6,2.1-1.8,2.7C101.8,184.4,100.5,184.7,99,184.7z"/>
		<path class="st0" d="M171.6,185.4c-3.4,0-6.6-0.8-9.5-2.5c-2.9-1.7-5.2-3.8-7-6.6c-1.8-2.7-2.7-5.7-2.7-8.8v-7.1
			c0-3.1,0.9-6,2.6-8.7c1.7-2.7,4-4.9,6.9-6.5c2.9-1.6,6.1-2.4,9.6-2.4c3.5,0,6.7,0.8,9.5,2.4c2.9,1.6,5.2,3.7,7,6.4
			c1.8,2.7,2.7,5.6,2.7,8.9v7.1c0,3.1-0.9,6-2.7,8.7c-1.8,2.7-4.1,4.9-7,6.6C178.2,184.6,175.1,185.4,171.6,185.4z M171.6,175.6
			c1.4,0,2.7-0.4,3.9-1.1c1.2-0.8,2.1-1.8,2.8-3c0.7-1.2,1.1-2.5,1.1-3.9v-7.1c0-1.3-0.4-2.6-1.1-3.7c-0.7-1.2-1.6-2.1-2.8-2.9
			s-2.5-1.2-3.9-1.2c-1.4,0-2.7,0.4-3.9,1.1c-1.2,0.8-2.1,1.7-2.8,2.9c-0.7,1.2-1,2.4-1,3.8v7.1c0,1.3,0.3,2.6,1,3.9
			c0.7,1.2,1.6,2.2,2.8,3C168.9,175.2,170.2,175.6,171.6,175.6z"/>
		<path class="st0" d="M203.7,184.7c-1.7,0-3-0.4-4.1-1.1c-1.1-0.8-1.6-1.6-1.6-2.5v-34.2c0-1,0.5-1.9,1.6-2.5c1.1-0.6,2.4-1,4.1-1
			c1.4,0,2.6,0.3,3.6,1c1,0.6,1.5,1.5,1.5,2.5v2.6c0.9-1.7,2.3-3.2,4.4-4.6c2-1.4,4.5-2,7.5-2c2.8,0,5.3,0.8,7.6,2.4
			c2.3,1.6,4.1,3.7,5.5,6.4c1.4,2.7,2.1,5.6,2.1,8.9V181c0,1.2-0.6,2.1-1.8,2.7c-1.2,0.6-2.5,0.9-4,0.9c-1.3,0-2.6-0.3-3.8-0.9
			c-1.2-0.6-1.9-1.5-1.9-2.7v-20.5c0-1.3-0.3-2.6-1-3.7c-0.7-1.2-1.6-2.1-2.8-2.9c-1.2-0.8-2.5-1.2-3.9-1.2c-1.2,0-2.3,0.3-3.4,1
			c-1.1,0.6-2,1.5-2.7,2.7c-0.7,1.2-1.1,2.6-1.1,4.2V181c0,0.9-0.6,1.8-1.7,2.5C206.7,184.3,205.3,184.7,203.7,184.7z"/>
		<path class="st0" d="M260.5,184.7c-5.3,0-9.4-1.1-12.2-3.4c-2.8-2.3-4.2-5.9-4.2-10.8v-42.1c0-1,0.6-1.9,1.9-2.5
			c1.2-0.6,2.5-1,3.8-1c1.4,0,2.7,0.3,3.9,1c1.2,0.6,1.8,1.5,1.8,2.5v15H266c0.9,0,1.7,0.4,2.2,1.3c0.5,0.8,0.8,1.8,0.8,2.8
			s-0.3,2-0.8,2.8c-0.5,0.8-1.2,1.3-2.2,1.3h-10.4v19c0,1.7,0.4,3,1.1,3.7c0.7,0.7,2,1,3.8,1h3.4c1.6,0,2.9,0.5,3.7,1.5
			c0.8,1,1.2,2.1,1.2,3.2c0,1.2-0.4,2.3-1.2,3.3c-0.8,1-2,1.5-3.7,1.5H260.5z"/>
		<path class="st0" d="M280.3,184.7c-1.6,0-2.9-0.4-4-1.1c-1.1-0.8-1.6-1.6-1.6-2.5v-34.2c0-1,0.5-1.9,1.6-2.5c1.1-0.6,2.4-1,4-1
			c1.5,0,2.7,0.3,3.7,1c1,0.6,1.5,1.5,1.5,2.5v3.6c0.6-1.3,1.5-2.5,2.6-3.6c1.1-1.1,2.3-2.1,3.8-2.8c1.4-0.8,2.9-1.1,4.5-1.1h2.7
			c1.1,0,2.1,0.5,2.9,1.4c0.8,1,1.2,2.1,1.2,3.4c0,1.4-0.4,2.6-1.2,3.5c-0.8,1-1.8,1.4-2.9,1.4h-2.7c-1.7,0-3.3,0.5-4.8,1.6
			c-1.6,1.1-2.8,2.6-3.8,4.4c-1,1.9-1.5,4.2-1.5,6.8V181c0,0.9-0.6,1.8-1.7,2.5C283.3,184.3,281.9,184.7,280.3,184.7z"/>
		<path class="st0" d="M327.7,185.4c-4.2,0-7.9-0.7-11.1-2.2c-3.2-1.5-5.7-3.6-7.6-6.3c-1.8-2.7-2.7-5.8-2.7-9.3v-7.4
			c0-3.1,0.9-6,2.6-8.7c1.7-2.6,4.1-4.8,7-6.3c2.9-1.6,6.2-2.4,9.8-2.4c3.3,0,6.3,0.7,9.1,2.1c2.7,1.4,5,3.3,6.7,5.7
			s2.6,5.3,2.6,8.5c0,2.5-0.4,4.3-1.2,5.3c-0.8,1.1-1.9,1.7-3.1,2c-1.3,0.3-2.6,0.4-3.9,0.4h-17.9v1.3c0,2.5,1,4.5,2.9,6
			c1.9,1.5,4.4,2.3,7.5,2.3c1.9,0,3.6-0.3,4.9-0.9c1.3-0.6,2.4-1.1,3.4-1.7s1.8-0.8,2.7-0.8c0.9,0,1.7,0.3,2.3,0.9
			c0.6,0.6,1.1,1.3,1.5,2c0.4,0.8,0.5,1.5,0.5,2c0,1-0.6,2-1.9,3.2c-1.3,1.1-3.1,2.1-5.4,2.9C333.6,185,330.9,185.4,327.7,185.4z
			 M320.9,135.4c-0.9,0-1.8-0.5-2.5-1.4c-0.7-1-1.1-1.9-1.1-2.8c0-1.3,0.5-2.2,1.5-2.7l11.7-5.6c0.4-0.1,0.8-0.2,1.1-0.2
			c1,0,1.8,0.5,2.5,1.4c0.7,0.9,1,1.9,1,2.9c0,1.2-0.5,2.1-1.6,2.7l-11.5,5.4c-0.2,0.1-0.4,0.1-0.6,0.2S321.2,135.4,320.9,135.4z
			 M317.7,160.3h12.9c1,0,1.7-0.2,2.1-0.5c0.4-0.3,0.6-0.9,0.6-1.9c0-1.3-0.4-2.5-1.1-3.6c-0.7-1-1.7-1.9-2.8-2.4
			c-1.2-0.6-2.4-0.9-3.8-0.9c-1.4,0-2.6,0.3-3.8,0.8c-1.2,0.6-2.1,1.3-2.9,2.3c-0.7,1-1.1,2.2-1.1,3.6V160.3z"/>
		<path class="st0" d="M359.8,185.4c-3.1,0-5.8-0.9-8.1-2.8c-2.3-1.9-3.4-4.8-3.4-8.7c0-3.3,0.9-5.9,2.6-7.7
			c1.7-1.9,4.2-3.2,7.2-3.9c3.1-0.8,6.7-1.1,10.7-1.1h3.6V160c0-1.3-0.3-2.5-0.8-3.7c-0.5-1.2-1.3-2.2-2.4-3
			c-1.1-0.8-2.6-1.2-4.6-1.2c-2.2,0-4,0.2-5.2,0.7c-1.2,0.4-2.1,0.9-2.8,1.3c-0.6,0.5-1.4,0.7-2.1,0.7c-1.2,0-2.2-0.6-2.9-1.8
			c-0.7-1.2-1-2.5-1-3.7c0-1.2,0.8-2.3,2.3-3.3s3.3-1.7,5.5-2.2c2.2-0.5,4.3-0.8,6.4-0.8c4.6,0,8.3,0.8,11,2.4
			c2.8,1.6,4.8,3.7,6.1,6.3c1.3,2.6,1.9,5.3,1.9,8.3V181c0,1-0.5,1.9-1.6,2.6s-2.4,1-4,1c-1.5,0-2.7-0.3-3.7-1s-1.5-1.6-1.5-2.6
			v-2.4c-1.6,1.8-3.5,3.4-5.6,4.8C365.4,184.7,362.8,185.4,359.8,185.4z M364.4,177.1c1.2,0,2.5-0.4,3.7-1.2
			c1.2-0.8,2.3-1.9,3.1-3.1c0.9-1.3,1.3-2.6,1.3-4v-1.8h-1.3c-1.9,0-3.8,0.1-5.6,0.3c-1.8,0.2-3.2,0.7-4.3,1.5
			c-1.1,0.8-1.6,2-1.6,3.6c0,1.6,0.5,2.8,1.4,3.6C361.9,176.7,363.1,177.1,364.4,177.1z"/>
		<path class="st0" d="M398.8,184.7c-1.7,0-3-0.4-4.1-1.1c-1.1-0.8-1.6-1.6-1.6-2.5v-58.3c0-1,0.5-1.9,1.6-2.5c1.1-0.6,2.4-1,4.1-1
			c1.6,0,2.9,0.3,4.1,1c1.1,0.6,1.7,1.5,1.7,2.5V181c0,0.9-0.6,1.8-1.7,2.5C401.8,184.3,400.4,184.7,398.8,184.7z"/>
	</g>
</g>
<g id="RadicalScience_x5F_spot12.tiff">
	
		<image style="overflow:visible;" width="576" height="527" id="RadicalScience_x5F_spot12" xlink:href="1BCE8657A0A00475.jpg"  transform="matrix(0.24 0 0 0.24 56.0379 449.7212)">
	</image>
</g>
<g id="RadicalScience_x5F_spot18.tiff">
	
		<image style="overflow:visible;" width="478" height="574" id="RadicalScience_x5F_spot18" xlink:href="1BCE8657A0A0047B.jpg"  transform="matrix(0.24 0 0 0.24 440.64 258.0412)">
	</image>
</g>
<g id="RadicalScience_x5F_spot20.tiff">
	
		<image style="overflow:visible;" width="597" height="582" id="RadicalScience_x5F_spot20" xlink:href="1BCE8657A0A0047D.jpg"  transform="matrix(0.24 0 0 0.24 235.0908 443.1212)">
	</image>
</g>
<image style="overflow:visible;" width="903" height="904" xlink:href="../../Downloads/RadicalScience.png"  transform="matrix(0.1642 0 0 0.1642 42.88 252.6812)">
</image>
<g>
	<g>
		<path class="st2" d="M185.3,317.5c-0.5,0-0.9-0.1-1.1-0.4s-0.4-0.5-0.4-0.9v-19.4c0-0.4,0.2-0.7,0.5-0.9c0.3-0.2,0.7-0.3,1.1-0.3
			h5.3c0.9,0,1.8,0.1,2.7,0.4c0.8,0.3,1.5,0.8,2.1,1.6c0.5,0.8,0.8,1.8,0.8,3.3c0,1.2-0.2,2.2-0.6,3c-0.4,0.8-1,1.4-1.7,1.7
			c0.6,0.2,1.1,0.5,1.5,0.9c0.4,0.4,0.8,0.9,1,1.5c0.2,0.6,0.4,1.4,0.4,2.4v0.6c0,1.6-0.2,2.8-0.7,3.7c-0.5,0.9-1.1,1.6-2,2
			c-0.8,0.4-1.8,0.6-2.8,0.6H185.3z M187.3,304.1h3.1c0.8,0,1.3-0.2,1.7-0.7c0.4-0.5,0.5-1.1,0.5-1.9c0-0.5-0.1-1-0.3-1.4
			c-0.2-0.4-0.4-0.7-0.8-0.9c-0.3-0.2-0.7-0.3-1.2-0.3h-3.1V304.1z M187.3,314.1h3.1c0.8,0,1.5-0.3,2-0.8c0.5-0.5,0.7-1.3,0.7-2.5
			v-0.5c0-1.2-0.2-2-0.7-2.5c-0.5-0.5-1.1-0.7-2-0.7h-3.1V314.1z"/>
		<path class="st2" d="M201.7,317.8c-1,0-1.8-0.3-2.5-1c-0.7-0.6-1.1-1.7-1.1-3c0-1.1,0.3-2,0.8-2.7c0.5-0.6,1.3-1.1,2.3-1.3
			c1-0.3,2.1-0.4,3.3-0.4h1.1V309c0-0.4-0.1-0.9-0.2-1.3s-0.4-0.8-0.7-1c-0.3-0.3-0.8-0.4-1.4-0.4c-0.7,0-1.2,0.1-1.6,0.2
			c-0.4,0.2-0.7,0.3-0.9,0.5c-0.2,0.2-0.4,0.2-0.7,0.2c-0.4,0-0.7-0.2-0.9-0.6c-0.2-0.4-0.3-0.8-0.3-1.3c0-0.4,0.2-0.8,0.7-1.1
			s1-0.6,1.7-0.8c0.7-0.2,1.3-0.3,2-0.3c1.4,0,2.6,0.3,3.4,0.8c0.9,0.6,1.5,1.3,1.9,2.2c0.4,0.9,0.6,1.8,0.6,2.9v7.3
			c0,0.4-0.2,0.7-0.5,0.9c-0.3,0.2-0.7,0.4-1.2,0.4c-0.5,0-0.8-0.1-1.1-0.4s-0.5-0.5-0.5-0.9v-0.8c-0.5,0.6-1.1,1.2-1.7,1.7
			C203.5,317.6,202.7,317.8,201.7,317.8z M203.2,314.9c0.4,0,0.8-0.1,1.2-0.4s0.7-0.6,1-1.1c0.3-0.4,0.4-0.9,0.4-1.4v-0.6h-0.4
			c-0.6,0-1.2,0-1.7,0.1s-1,0.3-1.3,0.5c-0.3,0.3-0.5,0.7-0.5,1.2c0,0.6,0.1,1,0.4,1.2C202.4,314.8,202.8,314.9,203.2,314.9z"/>
		<path class="st2" d="M213.6,317.5c-0.5,0-0.9-0.1-1.2-0.4c-0.3-0.3-0.5-0.5-0.5-0.9v-11.8c0-0.4,0.2-0.7,0.5-0.9s0.7-0.3,1.2-0.3
			c0.5,0,0.8,0.1,1.1,0.3c0.3,0.2,0.5,0.5,0.5,0.9v1.2c0.2-0.4,0.5-0.9,0.8-1.2c0.3-0.4,0.7-0.7,1.2-1c0.4-0.3,0.9-0.4,1.4-0.4h0.9
			c0.3,0,0.7,0.2,0.9,0.5c0.3,0.3,0.4,0.7,0.4,1.2c0,0.5-0.1,0.9-0.4,1.2c-0.3,0.3-0.6,0.5-0.9,0.5h-0.9c-0.5,0-1,0.2-1.5,0.6
			s-0.9,0.9-1.2,1.5c-0.3,0.7-0.5,1.4-0.5,2.4v5.3c0,0.3-0.2,0.6-0.5,0.9C214.5,317.4,214.1,317.5,213.6,317.5z"/>
		<path class="st2" d="M229.7,317.5c-0.4,0-0.8-0.1-1.2-0.3c-0.4-0.2-0.6-0.5-0.6-0.9v-18.7c0-0.7,0.2-1.2,0.6-1.5
			c0.4-0.3,0.8-0.4,1.2-0.4c0.4,0,0.8,0.1,1.1,0.2c0.3,0.1,0.6,0.3,0.9,0.6c0.3,0.3,0.5,0.7,0.8,1.3l3.4,6.7l3.4-6.7
			c0.3-0.6,0.6-1,0.9-1.3c0.2-0.3,0.5-0.5,0.8-0.6c0.3-0.1,0.7-0.2,1.1-0.2c0.5,0,0.9,0.1,1.2,0.4c0.4,0.3,0.5,0.8,0.5,1.5v18.7
			c0,0.4-0.2,0.7-0.6,0.9c-0.4,0.2-0.8,0.3-1.2,0.3c-0.4,0-0.8-0.1-1.2-0.3c-0.4-0.2-0.6-0.5-0.6-0.9v-12.9l-3.2,6.2
			c-0.2,0.3-0.4,0.5-0.6,0.6c-0.2,0.1-0.4,0.2-0.7,0.2c-0.2,0-0.4-0.1-0.6-0.2c-0.2-0.1-0.4-0.3-0.6-0.6l-3.2-6.4v13.1
			c0,0.4-0.2,0.7-0.5,0.9C230.6,317.4,230.2,317.5,229.7,317.5z"/>
		<path class="st2" d="M248.7,300.1c-0.5,0-1-0.2-1.4-0.6c-0.4-0.4-0.6-0.8-0.6-1.3c0-0.5,0.2-1,0.6-1.3s0.8-0.6,1.4-0.6
			c0.5,0,1,0.2,1.4,0.6c0.4,0.4,0.6,0.8,0.6,1.3c0,0.5-0.2,0.9-0.6,1.3C249.6,299.9,249.2,300.1,248.7,300.1z M248.7,317.5
			c-0.5,0-0.9-0.1-1.3-0.4c-0.3-0.3-0.5-0.5-0.5-0.9v-11.8c0-0.4,0.2-0.7,0.5-0.9s0.8-0.3,1.3-0.3c0.5,0,0.9,0.1,1.3,0.3
			c0.3,0.2,0.5,0.5,0.5,0.9v11.8c0,0.3-0.2,0.6-0.5,0.9C249.6,317.4,249.1,317.5,248.7,317.5z"/>
		<path class="st2" d="M255.2,317.5c-0.5,0-0.9-0.1-1.3-0.4c-0.3-0.3-0.5-0.5-0.5-0.9v-20.1c0-0.4,0.2-0.6,0.5-0.9
			c0.3-0.2,0.8-0.3,1.3-0.3c0.5,0,0.9,0.1,1.3,0.3c0.3,0.2,0.5,0.5,0.5,0.9v20.1c0,0.3-0.2,0.6-0.5,0.9
			C256.1,317.4,255.7,317.5,255.2,317.5z"/>
		<path class="st2" d="M265,317.5c-1.6,0-2.9-0.4-3.8-1.2c-0.9-0.8-1.3-2-1.3-3.7v-14.5c0-0.4,0.2-0.6,0.6-0.9
			c0.4-0.2,0.8-0.3,1.2-0.3c0.4,0,0.8,0.1,1.2,0.3c0.4,0.2,0.6,0.5,0.6,0.9v5.2h3.2c0.3,0,0.5,0.1,0.7,0.4c0.2,0.3,0.2,0.6,0.2,1
			c0,0.4-0.1,0.7-0.2,1c-0.2,0.3-0.4,0.4-0.7,0.4h-3.2v6.5c0,0.6,0.1,1,0.3,1.3c0.2,0.2,0.6,0.4,1.2,0.4h1.1c0.5,0,0.9,0.2,1.1,0.5
			s0.4,0.7,0.4,1.1c0,0.4-0.1,0.8-0.4,1.1s-0.6,0.5-1.1,0.5H265z"/>
		<path class="st2" d="M274.8,317.8c-1.1,0-2-0.3-2.9-0.9c-0.9-0.6-1.6-1.3-2.2-2.3c-0.5-0.9-0.8-1.9-0.8-3v-2.5
			c0-1.1,0.3-2.1,0.8-3c0.5-0.9,1.3-1.7,2.2-2.2c0.9-0.6,1.9-0.8,3-0.8c1.1,0,2.1,0.3,3,0.8c0.9,0.6,1.6,1.3,2.2,2.2
			s0.8,1.9,0.8,3.1v2.5c0,1.1-0.3,2.1-0.8,3s-1.3,1.7-2.2,2.3C276.9,317.5,275.9,317.8,274.8,317.8z M274.8,314.4
			c0.4,0,0.8-0.1,1.2-0.4c0.4-0.3,0.7-0.6,0.9-1c0.2-0.4,0.3-0.9,0.3-1.3v-2.5c0-0.5-0.1-0.9-0.3-1.3c-0.2-0.4-0.5-0.7-0.9-1
			c-0.4-0.3-0.8-0.4-1.2-0.4c-0.4,0-0.8,0.1-1.2,0.4c-0.4,0.3-0.7,0.6-0.9,1c-0.2,0.4-0.3,0.8-0.3,1.3v2.5c0,0.5,0.1,0.9,0.3,1.3
			c0.2,0.4,0.5,0.8,0.9,1C274,314.3,274.4,314.4,274.8,314.4z"/>
		<path class="st2" d="M284.8,317.5c-0.5,0-0.9-0.1-1.3-0.4c-0.3-0.3-0.5-0.5-0.5-0.9v-11.8c0-0.4,0.2-0.7,0.5-0.9s0.8-0.3,1.3-0.3
			c0.4,0,0.8,0.1,1.1,0.3c0.3,0.2,0.5,0.5,0.5,0.9v0.9c0.3-0.6,0.7-1.1,1.4-1.6c0.6-0.5,1.4-0.7,2.3-0.7c0.9,0,1.6,0.3,2.4,0.8
			c0.7,0.6,1.3,1.3,1.7,2.2s0.6,1.9,0.6,3.1v7.1c0,0.4-0.2,0.7-0.5,0.9s-0.8,0.3-1.2,0.3c-0.4,0-0.8-0.1-1.2-0.3
			c-0.4-0.2-0.6-0.5-0.6-0.9v-7.1c0-0.5-0.1-0.9-0.3-1.3c-0.2-0.4-0.5-0.7-0.9-1c-0.4-0.3-0.8-0.4-1.2-0.4c-0.4,0-0.7,0.1-1.1,0.3
			s-0.6,0.5-0.9,0.9c-0.2,0.4-0.3,0.9-0.3,1.4v7.1c0,0.3-0.2,0.6-0.5,0.9C285.7,317.4,285.3,317.5,284.8,317.5z"/>
		<path class="st2" d="M298.2,311.9c-0.3,0-0.6-0.1-0.8-0.5c-0.2-0.3-0.3-0.7-0.3-1.1s0.1-0.8,0.3-1.2c0.2-0.3,0.5-0.5,0.8-0.5h7.1
			c0.3,0,0.5,0.2,0.8,0.5c0.2,0.3,0.4,0.7,0.4,1.2s-0.1,0.8-0.4,1.1c-0.2,0.3-0.5,0.5-0.8,0.5H298.2z"/>
		<path class="st2" d="M310.8,317.5c-0.5,0-0.9-0.1-1.2-0.3c-0.4-0.2-0.6-0.5-0.6-0.9v-19.4c0-0.3,0.1-0.6,0.4-0.9
			c0.3-0.2,0.6-0.4,1-0.4h5.5c1.2,0,2.2,0.2,3.2,0.7c0.9,0.4,1.7,1.2,2.2,2.1s0.8,2.3,0.8,3.9v0.2c0,1.6-0.3,3-0.9,4
			c-0.6,1-1.3,1.7-2.3,2.2c-1,0.5-2.1,0.7-3.3,0.7h-3.1v6.9c0,0.4-0.2,0.7-0.5,0.9C311.7,317.4,311.3,317.5,310.8,317.5z
			 M312.6,306.3h3.1c0.9,0,1.6-0.3,2.1-0.8c0.5-0.6,0.8-1.4,0.8-2.6v-0.3c0-1.2-0.3-2.1-0.8-2.6c-0.5-0.6-1.2-0.9-2.1-0.9h-3.1
			V306.3z"/>
		<path class="st2" d="M326.9,317.8c-1,0-1.8-0.3-2.5-1c-0.7-0.6-1.1-1.7-1.1-3c0-1.1,0.3-2,0.8-2.7c0.5-0.6,1.3-1.1,2.3-1.3
			s2.1-0.4,3.3-0.4h1.1V309c0-0.4-0.1-0.9-0.2-1.3c-0.2-0.4-0.4-0.8-0.7-1c-0.3-0.3-0.8-0.4-1.4-0.4c-0.7,0-1.2,0.1-1.6,0.2
			c-0.4,0.2-0.7,0.3-0.9,0.5c-0.2,0.2-0.4,0.2-0.7,0.2c-0.4,0-0.7-0.2-0.9-0.6s-0.3-0.8-0.3-1.3c0-0.4,0.2-0.8,0.7-1.1
			c0.5-0.3,1-0.6,1.7-0.8c0.7-0.2,1.3-0.3,2-0.3c1.4,0,2.6,0.3,3.4,0.8c0.9,0.6,1.5,1.3,1.9,2.2c0.4,0.9,0.6,1.8,0.6,2.9v7.3
			c0,0.4-0.2,0.7-0.5,0.9s-0.7,0.4-1.2,0.4c-0.5,0-0.8-0.1-1.1-0.4c-0.3-0.2-0.5-0.5-0.5-0.9v-0.8c-0.5,0.6-1.1,1.2-1.7,1.7
			C328.6,317.6,327.8,317.8,326.9,317.8z M328.3,314.9c0.4,0,0.8-0.1,1.2-0.4s0.7-0.6,1-1.1c0.3-0.4,0.4-0.9,0.4-1.4v-0.6h-0.4
			c-0.6,0-1.2,0-1.7,0.1s-1,0.3-1.3,0.5c-0.3,0.3-0.5,0.7-0.5,1.2c0,0.6,0.1,1,0.4,1.2C327.5,314.8,327.9,314.9,328.3,314.9z"/>
		<path class="st2" d="M338.7,317.5c-0.5,0-0.9-0.1-1.2-0.4c-0.3-0.3-0.5-0.5-0.5-0.9v-11.8c0-0.4,0.2-0.7,0.5-0.9s0.7-0.3,1.2-0.3
			c0.5,0,0.8,0.1,1.1,0.3s0.5,0.5,0.5,0.9v1.2c0.2-0.4,0.5-0.9,0.8-1.2c0.3-0.4,0.7-0.7,1.2-1s0.9-0.4,1.4-0.4h0.9
			c0.3,0,0.7,0.2,0.9,0.5c0.3,0.3,0.4,0.7,0.4,1.2c0,0.5-0.1,0.9-0.4,1.2c-0.3,0.3-0.6,0.5-0.9,0.5h-0.9c-0.5,0-1,0.2-1.5,0.6
			s-0.9,0.9-1.2,1.5c-0.3,0.7-0.5,1.4-0.5,2.4v5.3c0,0.3-0.2,0.6-0.5,0.9C339.7,317.4,339.2,317.5,338.7,317.5z"/>
		<path class="st2" d="M352.8,317.8c-1.4,0-2.5-0.3-3.4-0.8s-1.5-1.3-2-2.2c-0.4-0.9-0.6-2-0.6-3.1v-2.4c0-1.2,0.2-2.2,0.6-3.1
			c0.4-0.9,1.1-1.7,2-2.2c0.9-0.5,2-0.8,3.4-0.8c0.9,0,1.6,0.1,2.3,0.3c0.7,0.2,1.2,0.5,1.6,0.9c0.4,0.4,0.6,0.7,0.6,1.1
			c0,0.2-0.1,0.5-0.2,0.8c-0.1,0.3-0.3,0.5-0.5,0.8c-0.2,0.2-0.5,0.3-0.7,0.3c-0.2,0-0.4-0.1-0.6-0.2c-0.2-0.1-0.5-0.3-0.8-0.4
			c-0.3-0.1-0.8-0.2-1.3-0.2c-0.9,0-1.6,0.2-2,0.7c-0.4,0.5-0.6,1.2-0.6,2v2.4c0,0.9,0.2,1.5,0.6,2c0.4,0.5,1.1,0.7,2.1,0.7
			c0.6,0,1-0.1,1.3-0.2s0.6-0.3,0.8-0.5c0.2-0.1,0.4-0.2,0.6-0.2c0.3,0,0.6,0.1,0.8,0.3c0.2,0.2,0.4,0.4,0.5,0.7s0.2,0.6,0.2,0.8
			c0,0.4-0.2,0.8-0.6,1.2c-0.4,0.4-0.9,0.7-1.6,0.9C354.5,317.7,353.7,317.8,352.8,317.8z"/>
		<path class="st2" d="M371.1,317.7c-1.1,0-2.2-0.2-3.2-0.7c-1-0.5-1.7-1.2-2.3-2.2c-0.6-1-0.9-2.4-0.9-4v-8.3c0-1.7,0.3-3,0.9-4
			c0.6-1,1.4-1.7,2.3-2.2c1-0.5,2-0.7,3.2-0.7c1.3,0,2.4,0.2,3.4,0.7c1,0.5,1.8,1.1,2.3,2c0.6,0.8,0.8,1.8,0.8,3
			c0,0.8-0.1,1.3-0.4,1.5c-0.3,0.3-0.7,0.4-1.3,0.4c-0.5,0-0.9-0.1-1.2-0.3c-0.3-0.2-0.5-0.5-0.5-0.9c0-0.2,0-0.5-0.1-0.9
			s-0.2-0.7-0.4-1c-0.2-0.3-0.5-0.6-0.8-0.8c-0.4-0.2-0.9-0.3-1.6-0.3c-0.9,0-1.6,0.3-2.1,0.9s-0.7,1.4-0.7,2.6v8.3
			c0,1.2,0.3,2.1,0.8,2.6s1.2,0.8,2.2,0.8c0.6,0,1.1-0.1,1.5-0.3c0.4-0.2,0.6-0.5,0.8-0.8s0.3-0.7,0.4-1c0.1-0.4,0.1-0.7,0.2-1
			c0-0.5,0.2-0.8,0.5-1s0.7-0.3,1.2-0.3c0.6,0,1.1,0.1,1.4,0.4c0.3,0.3,0.4,0.8,0.4,1.5c0,1.2-0.3,2.2-0.8,3.1
			c-0.6,0.9-1.3,1.6-2.3,2.1C373.5,317.5,372.4,317.7,371.1,317.7z"/>
		<path class="st2" d="M385.3,317.8c-1.1,0-2-0.3-2.9-0.9c-0.9-0.6-1.6-1.3-2.2-2.3c-0.5-0.9-0.8-1.9-0.8-3v-2.5
			c0-1.1,0.3-2.1,0.8-3c0.5-0.9,1.2-1.7,2.2-2.2c0.9-0.6,1.9-0.8,3-0.8s2.1,0.3,3,0.8c0.9,0.6,1.6,1.3,2.2,2.2s0.8,1.9,0.8,3.1v2.5
			c0,1.1-0.3,2.1-0.8,3s-1.3,1.7-2.2,2.3C387.3,317.5,386.4,317.8,385.3,317.8z M385.3,314.4c0.4,0,0.8-0.1,1.2-0.4
			c0.4-0.3,0.7-0.6,0.9-1c0.2-0.4,0.3-0.9,0.3-1.3v-2.5c0-0.5-0.1-0.9-0.3-1.3c-0.2-0.4-0.5-0.7-0.9-1c-0.4-0.3-0.8-0.4-1.2-0.4
			c-0.4,0-0.8,0.1-1.2,0.4c-0.4,0.3-0.7,0.6-0.9,1c-0.2,0.4-0.3,0.8-0.3,1.3v2.5c0,0.5,0.1,0.9,0.3,1.3s0.5,0.8,0.9,1
			C384.4,314.3,384.8,314.4,385.3,314.4z"/>
		<path class="st2" d="M394.2,311.9c-0.3,0-0.6-0.1-0.8-0.5c-0.2-0.3-0.3-0.7-0.3-1.1s0.1-0.8,0.3-1.2c0.2-0.3,0.5-0.5,0.8-0.5h7.1
			c0.3,0,0.5,0.2,0.8,0.5c0.2,0.3,0.4,0.7,0.4,1.2s-0.1,0.8-0.4,1.1c-0.2,0.3-0.5,0.5-0.8,0.5H394.2z"/>
		<path class="st2" d="M410.2,317.8c-1.1,0-2-0.3-2.9-0.9c-0.9-0.6-1.6-1.3-2.2-2.3c-0.5-0.9-0.8-1.9-0.8-3v-2.5
			c0-1.1,0.3-2.1,0.8-3c0.5-0.9,1.2-1.7,2.2-2.2c0.9-0.6,1.9-0.8,3-0.8s2.1,0.3,3,0.8c0.9,0.6,1.6,1.3,2.2,2.2s0.8,1.9,0.8,3.1v2.5
			c0,1.1-0.3,2.1-0.8,3s-1.3,1.7-2.2,2.3C412.3,317.5,411.3,317.8,410.2,317.8z M410.2,314.4c0.4,0,0.8-0.1,1.2-0.4
			c0.4-0.3,0.7-0.6,0.9-1c0.2-0.4,0.3-0.9,0.3-1.3v-2.5c0-0.5-0.1-0.9-0.3-1.3c-0.2-0.4-0.5-0.7-0.9-1c-0.4-0.3-0.8-0.4-1.2-0.4
			c-0.4,0-0.8,0.1-1.2,0.4c-0.4,0.3-0.7,0.6-0.9,1c-0.2,0.4-0.3,0.8-0.3,1.3v2.5c0,0.5,0.1,0.9,0.3,1.3s0.5,0.8,0.9,1
			C409.4,314.3,409.8,314.4,410.2,314.4z"/>
		<path class="st2" d="M420.2,324.2c-0.5,0-0.9-0.1-1.2-0.4c-0.3-0.3-0.5-0.5-0.5-0.8v-18.4c0-0.4,0.2-0.7,0.5-0.9s0.7-0.3,1.2-0.3
			s0.9,0.1,1.2,0.3c0.3,0.2,0.5,0.5,0.5,0.9v0.9c0.3-0.6,0.8-1.1,1.4-1.6c0.6-0.5,1.4-0.7,2.3-0.7c0.9,0,1.8,0.3,2.5,0.8
			c0.7,0.6,1.3,1.3,1.8,2.2c0.4,0.9,0.6,1.9,0.6,3.1v2.5c0,1.1-0.2,2.1-0.7,3c-0.4,0.9-1,1.7-1.7,2.3c-0.7,0.6-1.5,0.9-2.4,0.9
			c-0.8,0-1.5-0.2-2.2-0.7c-0.7-0.5-1.1-1-1.4-1.7v7.5c0,0.3-0.2,0.6-0.5,0.8C421.2,324,420.7,324.2,420.2,324.2z M424.5,314.4
			c0.4,0,0.8-0.1,1.2-0.4c0.4-0.3,0.7-0.6,0.9-1c0.2-0.4,0.3-0.9,0.3-1.3v-2.5c0-0.5-0.1-0.9-0.3-1.3c-0.2-0.4-0.5-0.7-0.9-1
			c-0.4-0.3-0.8-0.4-1.3-0.4c-0.4,0-0.8,0.1-1.1,0.3s-0.7,0.5-0.9,0.9c-0.2,0.4-0.4,0.9-0.4,1.4v3c0,0.2,0.1,0.5,0.3,0.8
			c0.2,0.4,0.5,0.7,0.9,1C423.6,314.3,424,314.4,424.5,314.4z"/>
		<path class="st2" d="M229.3,346.8c-0.5,0-1.1-0.1-1.6-0.3s-1-0.4-1.5-0.8c-0.5-0.4-0.8-0.8-1.1-1.4c-0.3-0.6-0.4-1.3-0.4-2v-9.6
			c0-0.7,0.1-1.4,0.4-2c0.3-0.6,0.6-1.1,1.1-1.5c0.5-0.4,1-0.7,1.5-1c0.5-0.2,1.1-0.3,1.7-0.3c0.6,0,0.9,0.1,1.1,0.4
			c0.2,0.3,0.3,0.6,0.3,0.9c0,0.4-0.1,0.7-0.2,1c-0.2,0.2-0.4,0.4-0.6,0.4c-0.5,0-0.9,0.1-1.3,0.3s-0.6,0.5-0.8,0.8
			c-0.2,0.3-0.3,0.7-0.3,1v9.6c0,0.5,0.1,0.9,0.4,1.1c0.2,0.2,0.6,0.4,0.9,0.5c0.4,0.1,0.7,0.1,1.1,0.1c0.4,0,0.6,0.1,0.7,0.4
			c0.1,0.3,0.2,0.6,0.2,0.9c0,0.4-0.1,0.7-0.3,1C230.3,346.7,229.9,346.8,229.3,346.8z"/>
		<path class="st2" d="M236.6,346.5c-0.9,0-1.7-0.1-2.3-0.4c-0.6-0.3-1.2-0.6-1.6-1.1c-0.4-0.4-0.7-0.9-0.9-1.4
			c-0.2-0.5-0.3-1-0.3-1.5c0-0.5,0.1-0.8,0.3-1c0.2-0.2,0.5-0.3,1-0.3c0.6,0,1,0.1,1.2,0.3c0.2,0.2,0.3,0.4,0.3,0.8
			c0,0.3,0.1,0.5,0.2,0.8s0.3,0.4,0.5,0.6c0.2,0.2,0.4,0.3,0.7,0.3c0.3,0.1,0.6,0.1,1,0.1c0.8,0,1.4-0.2,1.8-0.6
			c0.4-0.4,0.6-1.1,0.6-2v-0.5c0-0.9-0.2-1.5-0.7-1.8c-0.4-0.3-1-0.5-1.7-0.5c-0.3,0-0.5-0.1-0.7-0.4c-0.1-0.3-0.2-0.5-0.2-0.8
			c0-0.3,0.1-0.6,0.2-0.8c0.1-0.3,0.4-0.4,0.7-0.4c0.4,0,0.7-0.1,1-0.2c0.3-0.1,0.6-0.3,0.7-0.7c0.2-0.3,0.3-0.8,0.3-1.5
			c0-0.8-0.2-1.4-0.5-1.7c-0.3-0.3-0.8-0.5-1.4-0.5c-0.4,0-0.7,0-0.9,0.1c-0.2,0.1-0.5,0.2-0.6,0.3c-0.2,0.1-0.3,0.3-0.3,0.5
			c-0.1,0.2-0.1,0.4-0.1,0.7c0,0.4-0.1,0.6-0.3,0.9c-0.2,0.2-0.5,0.3-1.1,0.3c-0.4,0-0.8,0-1-0.1c-0.2-0.1-0.3-0.2-0.4-0.4
			c-0.1-0.2-0.1-0.5-0.1-0.8c0-0.4,0.1-0.9,0.2-1.4c0.2-0.5,0.4-0.9,0.8-1.4c0.4-0.4,0.9-0.8,1.5-1c0.6-0.3,1.4-0.4,2.3-0.4
			c0.9,0,1.7,0.1,2.4,0.4c0.7,0.3,1.2,0.7,1.7,1.3s0.6,1.5,0.6,2.5c0,0.9-0.2,1.8-0.5,2.5c-0.3,0.7-0.7,1.2-1.3,1.5
			c0.6,0.3,1.2,0.7,1.6,1.3s0.6,1.4,0.6,2.4v0.5c0,1.3-0.2,2.3-0.7,3.1s-1.1,1.3-1.9,1.7C238.4,346.3,237.6,346.5,236.6,346.5z"/>
		<path class="st2" d="M246.3,346.4c-0.3,0-0.6-0.1-0.8-0.2c-0.3-0.1-0.5-0.3-0.7-0.6s-0.3-0.5-0.3-0.8c0-0.2,0-0.4,0.1-0.6
			l5.7-11.2v-1.6h-4.6v1.9c0,0.3-0.1,0.5-0.4,0.7c-0.3,0.2-0.6,0.3-1,0.3c-0.4,0-0.7-0.1-1-0.3s-0.4-0.4-0.4-0.7v-3.7
			c0-0.3,0.1-0.5,0.4-0.7c0.3-0.2,0.5-0.3,0.9-0.3h7.8c0.3,0,0.6,0.1,0.8,0.3s0.4,0.4,0.4,0.7v2.7c0,0.2-0.1,0.5-0.2,0.9
			c-0.1,0.3-0.2,0.7-0.4,0.9l-5.5,11.7C247,346.3,246.7,346.4,246.3,346.4z"/>
		<path class="st2" d="M257.1,346.3c-0.4,0-0.7-0.1-1-0.3c-0.3-0.2-0.5-0.4-0.5-0.8v-12.8l-0.7,0.8c-0.1,0.1-0.2,0.1-0.3,0.2
			s-0.2,0.1-0.2,0.1c-0.3,0-0.5-0.1-0.7-0.4c-0.2-0.3-0.3-0.6-0.3-0.9c0-0.2,0-0.4,0.1-0.6s0.2-0.4,0.4-0.5l2.6-2.2
			c0.1-0.1,0.2-0.1,0.3-0.2c0.1,0,0.2-0.1,0.3-0.1c0.3,0,0.6,0.1,0.8,0.3c0.3,0.2,0.4,0.4,0.4,0.8v15.6c0,0.3-0.1,0.6-0.4,0.8
			S257.5,346.3,257.1,346.3z"/>
		<path class="st2" d="M267.5,346.3c-0.4,0-0.7-0.1-1-0.3c-0.3-0.2-0.5-0.4-0.5-0.8v-2.8h-5.3c-0.3,0-0.5-0.1-0.7-0.3
			s-0.3-0.5-0.3-0.8c0-0.1,0-0.2,0-0.3c0-0.1,0.1-0.2,0.1-0.3l5.2-11.2c0.1-0.3,0.3-0.5,0.5-0.6c0.2-0.1,0.4-0.2,0.7-0.2
			c0.2,0,0.4,0,0.6,0.1c0.2,0.1,0.4,0.2,0.6,0.4c0.2,0.2,0.3,0.4,0.3,0.6c0,0.1,0,0.2-0.1,0.4l-4.2,9.2h2.6v-2.5
			c0-0.4,0.1-0.6,0.5-0.8c0.3-0.2,0.6-0.2,1-0.2c0.4,0,0.7,0.1,1,0.2s0.5,0.4,0.5,0.8v2.5h1c0.3,0,0.5,0.2,0.7,0.5
			c0.2,0.3,0.2,0.6,0.2,1c0,0.4-0.1,0.7-0.3,1c-0.2,0.3-0.4,0.5-0.6,0.5h-1v2.8c0,0.3-0.2,0.6-0.5,0.8S267.8,346.3,267.5,346.3z"/>
		<path class="st2" d="M277.3,346.3c-0.3,0-0.5-0.1-0.8-0.2c-0.3-0.1-0.5-0.3-0.7-0.5c-0.2-0.2-0.3-0.4-0.3-0.7c0,0,0-0.1,0-0.2
			l4.2-15.1c0.1-0.4,0.3-0.6,0.7-0.8c0.4-0.2,0.7-0.3,1.2-0.3c0.4,0,0.8,0.1,1.2,0.3c0.4,0.2,0.6,0.4,0.7,0.8l4.2,15.1
			c0,0.1,0,0.2,0,0.2c0,0.2-0.1,0.5-0.3,0.7c-0.2,0.2-0.4,0.4-0.7,0.5s-0.5,0.2-0.8,0.2c-0.2,0-0.4,0-0.6-0.1s-0.3-0.3-0.3-0.5
			l-0.8-3.2H279l-0.8,3.2c-0.1,0.2-0.2,0.4-0.4,0.5S277.5,346.3,277.3,346.3z M279.7,340.1h3.8l-1.9-7.4L279.7,340.1z"/>
		<path class="st2" d="M293.2,346.6c-0.3,0-0.6,0-0.8-0.1c-0.2-0.1-0.4-0.2-0.5-0.4l-3.8-9.5c0,0-0.1-0.1-0.1-0.2s0-0.2,0-0.2
			c0-0.2,0.1-0.5,0.3-0.7s0.5-0.4,0.8-0.5c0.3-0.1,0.6-0.2,0.8-0.2c0.2,0,0.3,0,0.5,0.1c0.2,0.1,0.3,0.2,0.3,0.4l2.5,7l2.4-6.9
			c0.1-0.2,0.2-0.4,0.3-0.4c0.1-0.1,0.3-0.1,0.5-0.1c0.2,0,0.4,0.1,0.7,0.2s0.6,0.3,0.8,0.5c0.2,0.2,0.4,0.4,0.4,0.7
			c0,0.1,0,0.2,0,0.2c0,0.1,0,0.1-0.1,0.2l-3.8,9.5c-0.1,0.2-0.2,0.3-0.5,0.4C293.7,346.5,293.4,346.6,293.2,346.6z"/>
		<path class="st2" d="M304.4,346.5c-1,0-2-0.2-2.8-0.6s-1.4-1-1.9-1.7c-0.5-0.7-0.7-1.6-0.7-2.6v-2c0-0.9,0.2-1.7,0.6-2.4
			c0.4-0.7,1-1.3,1.7-1.8c0.7-0.4,1.5-0.7,2.4-0.7c0.8,0,1.6,0.2,2.3,0.6c0.7,0.4,1.2,0.9,1.7,1.6c0.4,0.7,0.6,1.5,0.6,2.4
			c0,0.7-0.1,1.2-0.3,1.5c-0.2,0.3-0.5,0.5-0.8,0.6c-0.3,0.1-0.6,0.1-1,0.1h-4.5v0.4c0,0.7,0.2,1.2,0.7,1.7s1.1,0.6,1.9,0.6
			c0.5,0,0.9-0.1,1.2-0.2c0.3-0.2,0.6-0.3,0.8-0.5c0.2-0.1,0.5-0.2,0.7-0.2c0.2,0,0.4,0.1,0.6,0.2s0.3,0.3,0.4,0.6
			c0.1,0.2,0.1,0.4,0.1,0.6c0,0.3-0.2,0.6-0.5,0.9c-0.3,0.3-0.8,0.6-1.3,0.8S305.2,346.5,304.4,346.5z M301.9,339.6h3.2
			c0.2,0,0.4,0,0.5-0.1c0.1-0.1,0.1-0.3,0.1-0.5c0-0.4-0.1-0.7-0.3-1s-0.4-0.5-0.7-0.7c-0.3-0.2-0.6-0.2-1-0.2
			c-0.3,0-0.7,0.1-0.9,0.2c-0.3,0.2-0.5,0.4-0.7,0.6c-0.2,0.3-0.3,0.6-0.3,1V339.6z"/>
		<path class="st2" d="M311.2,346.5c-0.4,0-0.8-0.2-1.1-0.5c-0.3-0.3-0.4-0.7-0.4-1.1c0-0.4,0.1-0.8,0.4-1.2
			c0.3-0.3,0.6-0.5,1.1-0.5c0.4,0,0.7,0.2,1,0.5c0.3,0.3,0.4,0.7,0.4,1.2c0,0.4-0.1,0.8-0.4,1.1
			C311.9,346.3,311.6,346.5,311.2,346.5z"/>
		<path class="st2" d="M320.2,346.3c-0.4,0-0.7-0.1-0.9-0.3c-0.2-0.2-0.3-0.4-0.3-0.7v-15.6c0-0.3,0.1-0.5,0.3-0.7
			c0.2-0.2,0.5-0.3,0.9-0.3h3.9c1,0,1.8,0.2,2.6,0.5c0.8,0.4,1.4,0.9,1.9,1.8s0.7,1.9,0.7,3.2v6.5c0,1.3-0.2,2.4-0.7,3.2
			s-1.1,1.4-1.9,1.8c-0.8,0.4-1.7,0.5-2.6,0.5H320.2z M321.8,343.6h2.3c0.7,0,1.3-0.2,1.7-0.7c0.4-0.5,0.6-1.2,0.6-2.1v-6.5
			c0-0.9-0.2-1.6-0.6-2.1c-0.4-0.5-1-0.7-1.7-0.7h-2.3V343.6z"/>
		<path class="st2" d="M336.2,346.5c-0.9,0-1.7-0.2-2.4-0.7c-0.7-0.5-1.3-1.1-1.7-1.8s-0.6-1.5-0.6-2.4v-5.8c0-0.2,0.1-0.5,0.4-0.7
			s0.6-0.3,1-0.3c0.4,0,0.7,0.1,1,0.3s0.4,0.4,0.4,0.7v5.8c0,0.4,0.1,0.7,0.3,1s0.4,0.6,0.7,0.8c0.3,0.2,0.6,0.3,1,0.3
			c0.4,0,0.7-0.1,1-0.3c0.3-0.2,0.5-0.5,0.7-0.8s0.3-0.7,0.3-1v-5.8c0-0.3,0.1-0.5,0.4-0.7s0.6-0.3,1-0.3c0.4,0,0.8,0.1,1,0.3
			c0.3,0.2,0.4,0.4,0.4,0.7v5.8c0,0.9-0.2,1.7-0.6,2.4s-1,1.3-1.7,1.8C337.9,346.3,337.1,346.5,336.2,346.5z"/>
		<path class="st2" d="M349.1,346.3c-0.4,0-0.7-0.1-1-0.3c-0.3-0.2-0.5-0.4-0.5-0.8v-15.6c0-0.3,0.1-0.5,0.3-0.7
			c0.2-0.2,0.5-0.3,0.8-0.3h4.4c0.9,0,1.8,0.2,2.5,0.5c0.8,0.4,1.4,0.9,1.8,1.7s0.7,1.8,0.7,3.2v0.1c0,1.3-0.2,2.4-0.7,3.2
			c-0.5,0.8-1.1,1.4-1.9,1.7c-0.8,0.4-1.7,0.5-2.6,0.5h-2.5v5.5c0,0.3-0.1,0.6-0.4,0.8C349.8,346.2,349.5,346.3,349.1,346.3z
			 M350.5,337.3h2.5c0.7,0,1.3-0.2,1.7-0.7c0.4-0.4,0.6-1.1,0.6-2.1v-0.3c0-0.9-0.2-1.6-0.6-2.1c-0.4-0.5-1-0.7-1.7-0.7h-2.5V337.3z
			"/>
		<path class="st2" d="M362,346.5c-0.8,0-1.4-0.3-2-0.8c-0.6-0.5-0.8-1.3-0.8-2.4c0-0.9,0.2-1.6,0.6-2.1c0.4-0.5,1-0.9,1.8-1.1
			s1.7-0.3,2.7-0.3h0.9v-0.3c0-0.4-0.1-0.7-0.2-1c-0.1-0.3-0.3-0.6-0.6-0.8c-0.3-0.2-0.7-0.3-1.2-0.3c-0.6,0-1,0.1-1.3,0.2
			c-0.3,0.1-0.5,0.2-0.7,0.4c-0.2,0.1-0.3,0.2-0.5,0.2c-0.3,0-0.5-0.2-0.7-0.5c-0.2-0.3-0.3-0.7-0.3-1c0-0.3,0.2-0.6,0.6-0.9
			c0.4-0.3,0.8-0.5,1.4-0.6c0.5-0.1,1.1-0.2,1.6-0.2c1.1,0,2.1,0.2,2.7,0.7s1.2,1,1.5,1.7c0.3,0.7,0.5,1.5,0.5,2.3v5.9
			c0,0.3-0.1,0.5-0.4,0.7c-0.3,0.2-0.6,0.3-1,0.3c-0.4,0-0.7-0.1-0.9-0.3c-0.2-0.2-0.4-0.4-0.4-0.7v-0.7c-0.4,0.5-0.9,0.9-1.4,1.3
			S362.7,346.5,362,346.5z M363.1,344.2c0.3,0,0.6-0.1,0.9-0.3c0.3-0.2,0.6-0.5,0.8-0.9c0.2-0.4,0.3-0.7,0.3-1.1v-0.5h-0.3
			c-0.5,0-0.9,0-1.4,0.1c-0.4,0.1-0.8,0.2-1.1,0.4c-0.3,0.2-0.4,0.5-0.4,1c0,0.4,0.1,0.8,0.3,1C362.5,344.1,362.8,344.2,363.1,344.2
			z"/>
		<path class="st2" d="M371.5,346.3c-0.4,0-0.7-0.1-1-0.3c-0.3-0.2-0.4-0.4-0.4-0.7v-9.4c0-0.3,0.1-0.5,0.4-0.7
			c0.3-0.2,0.6-0.3,1-0.3c0.4,0,0.7,0.1,0.9,0.3c0.2,0.2,0.4,0.4,0.4,0.7v1c0.2-0.4,0.4-0.7,0.6-1c0.3-0.3,0.6-0.6,0.9-0.8
			c0.4-0.2,0.7-0.3,1.1-0.3h0.7c0.3,0,0.5,0.1,0.7,0.4c0.2,0.3,0.3,0.6,0.3,0.9c0,0.4-0.1,0.7-0.3,1c-0.2,0.3-0.4,0.4-0.7,0.4h-0.7
			c-0.4,0-0.8,0.1-1.2,0.4c-0.4,0.3-0.7,0.7-1,1.2s-0.4,1.1-0.4,1.9v4.3c0,0.3-0.1,0.5-0.4,0.7C372.2,346.2,371.9,346.3,371.5,346.3
			z"/>
		<path class="st2" d="M382.7,346.5c-1.1,0-2-0.2-2.7-0.6c-0.7-0.4-1.2-1-1.6-1.8c-0.3-0.7-0.5-1.6-0.5-2.5v-1.9
			c0-0.9,0.2-1.8,0.5-2.5c0.3-0.7,0.9-1.3,1.6-1.8c0.7-0.4,1.6-0.6,2.7-0.6c0.7,0,1.3,0.1,1.8,0.3c0.5,0.2,0.9,0.4,1.3,0.7
			s0.5,0.6,0.5,0.9c0,0.2,0,0.4-0.1,0.6c-0.1,0.2-0.2,0.4-0.4,0.6c-0.2,0.2-0.4,0.3-0.6,0.3c-0.2,0-0.3-0.1-0.5-0.2
			c-0.2-0.1-0.4-0.2-0.6-0.3c-0.3-0.1-0.6-0.2-1.1-0.2c-0.7,0-1.3,0.2-1.6,0.6c-0.3,0.4-0.5,0.9-0.5,1.6v1.9c0,0.7,0.2,1.2,0.5,1.6
			c0.3,0.4,0.9,0.6,1.6,0.6c0.5,0,0.8-0.1,1.1-0.2c0.2-0.1,0.5-0.2,0.6-0.4c0.2-0.1,0.3-0.2,0.5-0.2c0.3,0,0.5,0.1,0.7,0.2
			c0.2,0.2,0.3,0.4,0.4,0.6c0.1,0.2,0.1,0.4,0.1,0.6c0,0.3-0.2,0.6-0.5,0.9c-0.3,0.3-0.7,0.6-1.3,0.7S383.4,346.5,382.7,346.5z"/>
		<path class="st2" d="M388.5,346.8c-0.6,0-1-0.1-1.2-0.4c-0.2-0.2-0.3-0.6-0.3-1c0-0.3,0.1-0.6,0.2-0.9c0.1-0.3,0.4-0.4,0.7-0.4
			c0.4,0,0.7,0,1.1-0.1c0.4-0.1,0.7-0.3,0.9-0.5c0.2-0.2,0.4-0.6,0.4-1.1v-9.6c0-0.4-0.1-0.7-0.3-1c-0.2-0.3-0.4-0.6-0.8-0.8
			c-0.4-0.2-0.8-0.3-1.3-0.3c-0.3,0-0.5-0.1-0.6-0.4c-0.2-0.2-0.3-0.6-0.3-1c0-0.4,0.1-0.7,0.3-0.9c0.2-0.3,0.6-0.4,1.1-0.4
			c0.6,0,1.1,0.1,1.7,0.3c0.5,0.2,1.1,0.5,1.5,1c0.5,0.4,0.8,0.9,1.1,1.5c0.3,0.6,0.4,1.3,0.4,2v9.6c0,0.8-0.1,1.5-0.4,2
			c-0.3,0.6-0.6,1-1.1,1.4c-0.5,0.4-1,0.6-1.5,0.8C389.6,346.7,389.1,346.8,388.5,346.8z"/>
	</g>
</g>
<g id="RadicalScience_x5F_spot03.tiff">
	
		<image style="overflow:visible;" width="586" height="761" id="RadicalScience_x5F_spot03" xlink:href="1BCE8657A0A0047C.jpg"  transform="matrix(0.24 0 0 0.24 418.68 407.6356)">
	</image>
</g>
<g>
	<g>
		<path class="st2" d="M141.3,419.1c-0.3,0-0.5,0-0.8-0.1c-0.2-0.1-0.4-0.3-0.5-0.5l-3.8-10.7c0-0.1-0.1-0.2-0.1-0.3
			c0-0.1,0-0.1,0-0.2c0-0.3,0.1-0.5,0.3-0.7s0.5-0.4,0.8-0.5c0.3-0.1,0.6-0.2,0.9-0.2c0.2,0,0.4,0,0.6,0.1c0.2,0.1,0.3,0.2,0.4,0.4
			l2.5,7.7l1.9-6.7c0.1-0.3,0.2-0.5,0.4-0.6s0.4-0.1,0.7-0.1s0.5,0,0.7,0.1s0.3,0.3,0.4,0.6l1.8,6.7l2.5-7.7
			c0.1-0.4,0.4-0.6,0.9-0.6c0.3,0,0.6,0.1,0.9,0.2c0.3,0.1,0.6,0.3,0.8,0.5c0.2,0.2,0.3,0.5,0.3,0.8c0,0.1,0,0.2,0,0.2
			s0,0.2-0.1,0.2l-3.8,10.7c-0.1,0.2-0.2,0.4-0.5,0.5c-0.2,0.1-0.5,0.1-0.8,0.1c-0.3,0-0.6-0.1-0.8-0.2c-0.2-0.1-0.4-0.3-0.5-0.5
			l-1.9-5.9l-1.9,5.9c0,0.2-0.2,0.4-0.5,0.5C141.9,419,141.6,419.1,141.3,419.1z"/>
		<path class="st2" d="M159.9,419c-1.2,0-2.2-0.2-3.1-0.7c-0.9-0.5-1.6-1.1-2.1-1.9c-0.5-0.8-0.8-1.8-0.8-2.9v-2.3
			c0-1,0.2-1.9,0.7-2.7c0.5-0.8,1.1-1.5,2-2s1.7-0.7,2.7-0.7c0.9,0,1.8,0.2,2.5,0.6c0.8,0.4,1.4,1,1.9,1.8c0.5,0.8,0.7,1.6,0.7,2.6
			c0,0.8-0.1,1.3-0.3,1.7c-0.2,0.3-0.5,0.5-0.9,0.6s-0.7,0.1-1.1,0.1h-5v0.4c0,0.8,0.3,1.4,0.8,1.9c0.5,0.5,1.2,0.7,2.1,0.7
			c0.5,0,1-0.1,1.4-0.3c0.4-0.2,0.7-0.4,0.9-0.5s0.5-0.2,0.7-0.2c0.2,0,0.5,0.1,0.6,0.3c0.2,0.2,0.3,0.4,0.4,0.6s0.1,0.5,0.1,0.6
			c0,0.3-0.2,0.6-0.5,1c-0.4,0.4-0.9,0.6-1.5,0.9C161.5,418.9,160.8,419,159.9,419z M157.1,411.2h3.6c0.3,0,0.5,0,0.6-0.1
			c0.1-0.1,0.2-0.3,0.2-0.6c0-0.4-0.1-0.8-0.3-1.1c-0.2-0.3-0.5-0.6-0.8-0.8c-0.3-0.2-0.7-0.3-1.1-0.3c-0.4,0-0.7,0.1-1.1,0.3
			c-0.3,0.2-0.6,0.4-0.8,0.7c-0.2,0.3-0.3,0.7-0.3,1.1V411.2z"/>
		<path class="st2" d="M170.2,419c-0.8,0-1.5-0.3-2.2-0.8c-0.7-0.5-1.2-1.2-1.6-2.1s-0.6-1.7-0.6-2.7v-2.2c0-1,0.2-1.9,0.6-2.8
			s0.9-1.5,1.6-2s1.4-0.7,2.2-0.7c0.8,0,1.4,0.2,2,0.6c0.5,0.4,0.9,0.9,1.2,1.4v-8.3c0-0.3,0.2-0.6,0.5-0.8c0.3-0.2,0.7-0.3,1.2-0.3
			c0.4,0,0.8,0.1,1.1,0.3s0.4,0.5,0.4,0.8v18.1c0,0.3-0.1,0.5-0.4,0.8c-0.3,0.2-0.7,0.4-1.1,0.4c-0.4,0-0.7-0.1-1-0.4
			c-0.3-0.2-0.4-0.5-0.4-0.8v-0.8c-0.2,0.6-0.7,1.1-1.3,1.5C171.7,418.8,171,419,170.2,419z M171.3,416c0.4,0,0.8-0.1,1.1-0.4
			c0.3-0.3,0.6-0.5,0.8-0.9c0.2-0.3,0.3-0.6,0.3-0.7v-2.7c0-0.5-0.1-0.9-0.3-1.3s-0.5-0.6-0.8-0.8c-0.3-0.2-0.7-0.3-1-0.3
			c-0.4,0-0.8,0.1-1.1,0.4c-0.3,0.2-0.6,0.5-0.8,0.9s-0.3,0.7-0.3,1.2v2.2c0,0.4,0.1,0.8,0.3,1.2c0.2,0.4,0.4,0.7,0.8,0.9
			C170.5,415.9,170.9,416,171.3,416z"/>
		<path class="st2" d="M180.8,418.8c-0.5,0-0.8-0.1-1.1-0.4c-0.3-0.2-0.4-0.5-0.4-0.8V407c0-0.3,0.1-0.6,0.4-0.8
			c0.3-0.2,0.7-0.3,1.1-0.3c0.4,0,0.7,0.1,1,0.3c0.3,0.2,0.4,0.5,0.4,0.8v0.8c0.2-0.5,0.7-1,1.2-1.4c0.6-0.4,1.3-0.6,2.1-0.6
			c0.8,0,1.5,0.2,2.1,0.7s1.2,1.2,1.5,2s0.6,1.7,0.6,2.8v6.4c0,0.4-0.2,0.7-0.5,0.9c-0.3,0.2-0.7,0.3-1.1,0.3
			c-0.4,0-0.7-0.1-1.1-0.3c-0.3-0.2-0.5-0.5-0.5-0.9v-6.4c0-0.4-0.1-0.8-0.3-1.2c-0.2-0.4-0.4-0.7-0.8-0.9c-0.3-0.2-0.7-0.4-1.1-0.4
			c-0.3,0-0.7,0.1-1,0.3s-0.6,0.5-0.8,0.8s-0.3,0.8-0.3,1.3v6.4c0,0.3-0.2,0.5-0.5,0.8C181.6,418.7,181.2,418.8,180.8,418.8z"/>
		<path class="st2" d="M197.6,419c-1.2,0-2.2-0.2-3.1-0.7c-0.9-0.5-1.6-1.1-2.1-1.9c-0.5-0.8-0.8-1.8-0.8-2.9v-2.3
			c0-1,0.2-1.9,0.7-2.7c0.5-0.8,1.1-1.5,2-2s1.7-0.7,2.7-0.7c0.9,0,1.8,0.2,2.5,0.6c0.8,0.4,1.4,1,1.9,1.8c0.5,0.8,0.7,1.6,0.7,2.6
			c0,0.8-0.1,1.3-0.3,1.7c-0.2,0.3-0.5,0.5-0.9,0.6s-0.7,0.1-1.1,0.1h-5v0.4c0,0.8,0.3,1.4,0.8,1.9c0.5,0.5,1.2,0.7,2.1,0.7
			c0.5,0,1-0.1,1.4-0.3c0.4-0.2,0.7-0.4,0.9-0.5s0.5-0.2,0.7-0.2c0.2,0,0.5,0.1,0.6,0.3c0.2,0.2,0.3,0.4,0.4,0.6s0.1,0.5,0.1,0.6
			c0,0.3-0.2,0.6-0.5,1c-0.4,0.4-0.9,0.6-1.5,0.9C199.3,418.9,198.5,419,197.6,419z M194.9,411.2h3.6c0.3,0,0.5,0,0.6-0.1
			c0.1-0.1,0.2-0.3,0.2-0.6c0-0.4-0.1-0.8-0.3-1.1c-0.2-0.3-0.5-0.6-0.8-0.8c-0.3-0.2-0.7-0.3-1.1-0.3c-0.4,0-0.7,0.1-1.1,0.3
			c-0.3,0.2-0.6,0.4-0.8,0.7c-0.2,0.3-0.3,0.7-0.3,1.1V411.2z"/>
		<path class="st2" d="M207.9,419c-0.8,0-1.6-0.1-2.3-0.3s-1.2-0.5-1.6-0.9c-0.4-0.4-0.6-0.7-0.6-1.1c0-0.2,0-0.4,0.1-0.6
			c0.1-0.2,0.2-0.4,0.4-0.6s0.3-0.3,0.6-0.3c0.2,0,0.5,0.1,0.7,0.3c0.3,0.2,0.6,0.4,1,0.6c0.4,0.2,0.9,0.3,1.6,0.3
			c0.7,0,1.2-0.1,1.5-0.4c0.2-0.3,0.4-0.5,0.4-0.8c0-0.4-0.1-0.7-0.4-0.9c-0.3-0.2-0.7-0.4-1.1-0.5c-0.4-0.1-0.9-0.3-1.4-0.4
			c-0.5-0.2-1-0.4-1.4-0.6c-0.4-0.3-0.8-0.6-1.1-1.1c-0.3-0.5-0.4-1.1-0.4-1.8c0-0.6,0.1-1.3,0.4-1.9c0.3-0.6,0.7-1.1,1.4-1.5
			c0.6-0.4,1.5-0.6,2.6-0.6c0.7,0,1.3,0.1,1.9,0.2c0.6,0.2,1.1,0.4,1.5,0.6c0.4,0.3,0.6,0.6,0.6,0.9c0,0.2,0,0.4-0.1,0.6
			c-0.1,0.3-0.2,0.5-0.4,0.7c-0.2,0.2-0.4,0.3-0.6,0.3c-0.2,0-0.4-0.1-0.7-0.2c-0.3-0.1-0.5-0.3-0.9-0.4c-0.3-0.1-0.7-0.2-1.2-0.2
			c-0.4,0-0.7,0.1-1,0.2c-0.2,0.1-0.4,0.3-0.5,0.5c-0.1,0.2-0.2,0.4-0.2,0.6c0,0.3,0.1,0.6,0.4,0.8c0.3,0.2,0.6,0.3,1.1,0.5
			c0.5,0.1,0.9,0.3,1.4,0.4c0.5,0.2,1,0.4,1.4,0.7c0.5,0.3,0.8,0.7,1.1,1.2c0.3,0.5,0.4,1.1,0.4,1.9c0,1.2-0.4,2.2-1.2,2.9
			C210.5,418.7,209.4,419,207.9,419z"/>
		<path class="st2" d="M218.3,419c-0.8,0-1.5-0.3-2.2-0.8c-0.7-0.5-1.2-1.2-1.6-2.1s-0.6-1.7-0.6-2.7v-2.2c0-1,0.2-1.9,0.6-2.8
			s0.9-1.5,1.6-2s1.4-0.7,2.2-0.7c0.8,0,1.4,0.2,2,0.6c0.5,0.4,0.9,0.9,1.2,1.4v-8.3c0-0.3,0.2-0.6,0.5-0.8c0.3-0.2,0.7-0.3,1.2-0.3
			c0.4,0,0.8,0.1,1.1,0.3s0.4,0.5,0.4,0.8v18.1c0,0.3-0.1,0.5-0.4,0.8c-0.3,0.2-0.7,0.4-1.1,0.4c-0.4,0-0.7-0.1-1-0.4
			c-0.3-0.2-0.4-0.5-0.4-0.8v-0.8c-0.2,0.6-0.7,1.1-1.3,1.5C219.8,418.8,219.1,419,218.3,419z M219.3,416c0.4,0,0.8-0.1,1.1-0.4
			c0.3-0.3,0.6-0.5,0.8-0.9c0.2-0.3,0.3-0.6,0.3-0.7v-2.7c0-0.5-0.1-0.9-0.3-1.3s-0.5-0.6-0.8-0.8c-0.3-0.2-0.7-0.3-1-0.3
			c-0.4,0-0.8,0.1-1.1,0.4c-0.3,0.2-0.6,0.5-0.8,0.9s-0.3,0.7-0.3,1.2v2.2c0,0.4,0.1,0.8,0.3,1.2c0.2,0.4,0.4,0.7,0.8,0.9
			C218.6,415.9,218.9,416,219.3,416z"/>
		<path class="st2" d="M229.8,419c-0.9,0-1.6-0.3-2.3-0.9c-0.6-0.6-1-1.5-1-2.7c0-1,0.2-1.8,0.7-2.4s1.2-1,2-1.2
			c0.9-0.2,1.9-0.4,3-0.4h1v-0.4c0-0.4-0.1-0.8-0.2-1.2s-0.4-0.7-0.7-0.9c-0.3-0.3-0.7-0.4-1.3-0.4c-0.6,0-1.1,0.1-1.4,0.2
			c-0.3,0.1-0.6,0.3-0.8,0.4c-0.2,0.1-0.4,0.2-0.6,0.2c-0.3,0-0.6-0.2-0.8-0.6c-0.2-0.4-0.3-0.8-0.3-1.2c0-0.4,0.2-0.7,0.6-1
			s0.9-0.5,1.5-0.7c0.6-0.2,1.2-0.2,1.8-0.2c1.3,0,2.3,0.3,3.1,0.8c0.8,0.5,1.3,1.2,1.7,1.9c0.4,0.8,0.5,1.6,0.5,2.6v6.6
			c0,0.3-0.1,0.6-0.4,0.8s-0.7,0.3-1.1,0.3c-0.4,0-0.8-0.1-1-0.3s-0.4-0.5-0.4-0.8v-0.8c-0.4,0.6-1,1.1-1.6,1.5
			C231.4,418.8,230.6,419,229.8,419z M231.1,416.4c0.3,0,0.7-0.1,1-0.4c0.3-0.3,0.6-0.6,0.9-1c0.2-0.4,0.4-0.8,0.4-1.2v-0.6H233
			c-0.5,0-1.1,0-1.6,0.1c-0.5,0.1-0.9,0.2-1.2,0.5c-0.3,0.2-0.5,0.6-0.5,1.1s0.1,0.9,0.4,1.1C230.4,416.3,230.7,416.4,231.1,416.4z"
			/>
		<path class="st2" d="M239.3,424.8c-0.4,0-0.8-0.1-1-0.3c-0.3-0.2-0.4-0.6-0.4-1.2c0-0.4,0.1-0.7,0.2-1c0.1-0.3,0.3-0.4,0.6-0.4
			c0.3,0,0.6-0.1,1-0.2c0.4-0.1,0.7-0.3,1.1-0.6c0.4-0.3,0.7-0.7,1-1.2c0.3-0.5,0.4-1.2,0.5-2l-4.3-9.9c-0.1-0.2-0.1-0.3-0.1-0.5
			c0-0.3,0.1-0.6,0.4-0.8c0.2-0.3,0.5-0.5,0.9-0.6c0.3-0.2,0.6-0.2,0.9-0.2c0.2,0,0.4,0,0.6,0.1c0.2,0.1,0.3,0.2,0.4,0.5l3,8.1
			l2.4-8.1c0.1-0.2,0.2-0.4,0.4-0.5c0.2-0.1,0.3-0.1,0.5-0.1c0.2,0,0.5,0.1,0.9,0.2c0.3,0.2,0.6,0.4,0.9,0.6
			c0.3,0.3,0.4,0.6,0.4,0.9c0,0.2,0,0.3-0.1,0.4l-3.6,10.1c-0.3,0.8-0.6,1.6-0.9,2.4c-0.3,0.8-0.6,1.5-1.1,2.2
			c-0.4,0.7-1,1.2-1.7,1.6C241.3,424.6,240.4,424.8,239.3,424.8z"/>
		<path class="st2" d="M251.4,421.5c-0.2,0-0.5-0.1-0.7-0.2c-0.2-0.2-0.4-0.4-0.4-0.7c0-0.1,0-0.3,0.1-0.4l0.6-1.4
			c-0.3-0.2-0.5-0.4-0.7-0.7c-0.2-0.3-0.2-0.6-0.2-1c0-0.5,0.2-0.9,0.5-1.3c0.3-0.4,0.7-0.5,1.2-0.5c0.5,0,0.9,0.2,1.2,0.5
			c0.3,0.4,0.5,0.8,0.5,1.3c0,0.1,0,0.2,0,0.3c0,0.1-0.1,0.3-0.2,0.6c-0.1,0.3-0.2,0.6-0.4,1.1c-0.2,0.5-0.4,1.2-0.8,2
			c-0.1,0.2-0.2,0.3-0.3,0.4C251.6,421.4,251.5,421.5,251.4,421.5z"/>
		<path class="st2" d="M261.9,418.8c-0.4,0-0.8-0.1-1.1-0.3s-0.4-0.5-0.4-0.8v-13.9c0-1,0.2-1.9,0.6-2.7c0.4-0.8,0.9-1.4,1.6-1.9
			s1.4-0.7,2.2-0.7h1.5c0.4,0,0.7,0.2,0.9,0.5s0.3,0.6,0.3,1c0,0.4-0.1,0.7-0.3,1s-0.5,0.4-0.9,0.4h-0.8c-0.3,0-0.7,0.1-0.9,0.2
			c-0.3,0.2-0.5,0.4-0.7,0.7c-0.2,0.3-0.2,0.6-0.2,1.1v2.6h3c0.3,0,0.5,0.1,0.6,0.4c0.1,0.3,0.2,0.6,0.2,0.9c0,0.3-0.1,0.6-0.2,0.9
			c-0.1,0.3-0.3,0.4-0.6,0.4h-3v9.2c0,0.3-0.2,0.6-0.5,0.8C262.7,418.7,262.3,418.8,261.9,418.8z"/>
		<path class="st2" d="M274.3,419c-1.2,0-2.2-0.2-3.1-0.7c-0.9-0.5-1.6-1.1-2.1-1.9c-0.5-0.8-0.8-1.8-0.8-2.9v-2.3
			c0-1,0.2-1.9,0.7-2.7c0.5-0.8,1.1-1.5,2-2s1.7-0.7,2.7-0.7c0.9,0,1.8,0.2,2.5,0.6c0.8,0.4,1.4,1,1.9,1.8c0.5,0.8,0.7,1.6,0.7,2.6
			c0,0.8-0.1,1.3-0.3,1.7c-0.2,0.3-0.5,0.5-0.9,0.6s-0.7,0.1-1.1,0.1h-5v0.4c0,0.8,0.3,1.4,0.8,1.9c0.5,0.5,1.2,0.7,2.1,0.7
			c0.5,0,1-0.1,1.4-0.3c0.4-0.2,0.7-0.4,0.9-0.5s0.5-0.2,0.7-0.2c0.2,0,0.5,0.1,0.6,0.3c0.2,0.2,0.3,0.4,0.4,0.6s0.1,0.5,0.1,0.6
			c0,0.3-0.2,0.6-0.5,1c-0.4,0.4-0.9,0.6-1.5,0.9C275.9,418.9,275.2,419,274.3,419z M271.5,411.2h3.6c0.3,0,0.5,0,0.6-0.1
			c0.1-0.1,0.2-0.3,0.2-0.6c0-0.4-0.1-0.8-0.3-1.1c-0.2-0.3-0.5-0.6-0.8-0.8c-0.3-0.2-0.7-0.3-1.1-0.3c-0.4,0-0.7,0.1-1.1,0.3
			c-0.3,0.2-0.6,0.4-0.8,0.7c-0.2,0.3-0.3,0.7-0.3,1.1V411.2z"/>
		<path class="st2" d="M287.2,419c-0.8,0-1.5-0.2-2.1-0.6c-0.6-0.4-1.1-0.9-1.3-1.5v0.8c0,0.3-0.1,0.5-0.4,0.8
			c-0.3,0.2-0.6,0.4-1,0.4c-0.4,0-0.8-0.1-1.1-0.4c-0.3-0.2-0.4-0.5-0.4-0.8v-18.1c0-0.3,0.1-0.6,0.4-0.8s0.7-0.3,1.1-0.3
			c0.5,0,0.8,0.1,1.2,0.3c0.3,0.2,0.5,0.5,0.5,0.8v8.3c0.3-0.5,0.7-1,1.2-1.4c0.5-0.4,1.2-0.6,2-0.6c0.8,0,1.5,0.2,2.2,0.7
			s1.2,1.2,1.6,2s0.6,1.7,0.6,2.8v2.2c0,1-0.2,1.9-0.6,2.7s-0.9,1.5-1.6,2.1C288.7,418.8,288,419,287.2,419z M286.2,416
			c0.4,0,0.8-0.1,1.1-0.4c0.3-0.2,0.6-0.6,0.8-0.9c0.2-0.4,0.3-0.8,0.3-1.2v-2.2c0-0.4-0.1-0.8-0.3-1.2c-0.2-0.4-0.4-0.7-0.8-0.9
			c-0.3-0.2-0.7-0.4-1.1-0.4c-0.3,0-0.7,0.1-1,0.3c-0.3,0.2-0.6,0.5-0.8,0.8s-0.3,0.8-0.3,1.3v2.7c0,0.2,0.1,0.4,0.3,0.7
			c0.2,0.3,0.5,0.6,0.8,0.9C285.4,415.8,285.7,416,286.2,416z"/>
		<path class="st2" d="M295.1,418.8c-0.4,0-0.8-0.1-1.1-0.4c-0.3-0.2-0.4-0.5-0.4-0.8V407c0-0.3,0.1-0.6,0.4-0.8
			c0.3-0.2,0.7-0.3,1.1-0.3c0.4,0,0.8,0.1,1,0.3c0.3,0.2,0.4,0.5,0.4,0.8v1.1c0.2-0.4,0.4-0.8,0.7-1.1c0.3-0.4,0.7-0.6,1.1-0.9
			c0.4-0.2,0.8-0.4,1.3-0.4h0.8c0.3,0,0.6,0.1,0.8,0.4c0.2,0.3,0.3,0.7,0.3,1.1c0,0.4-0.1,0.8-0.3,1.1c-0.2,0.3-0.5,0.4-0.8,0.4
			h-0.8c-0.5,0-0.9,0.2-1.3,0.5s-0.8,0.8-1.1,1.4c-0.3,0.6-0.4,1.3-0.4,2.1v4.8c0,0.3-0.2,0.5-0.5,0.8
			C296,418.7,295.6,418.8,295.1,418.8z"/>
		<path class="st2" d="M308.1,419c-1,0-1.9-0.3-2.7-0.8s-1.5-1.2-2-2s-0.7-1.7-0.7-2.7v-6.5c0-0.3,0.2-0.5,0.5-0.8
			c0.3-0.2,0.7-0.4,1.1-0.4s0.8,0.1,1.1,0.4c0.3,0.2,0.5,0.5,0.5,0.8v6.5c0,0.4,0.1,0.8,0.3,1.2c0.2,0.4,0.5,0.7,0.8,0.9
			c0.3,0.2,0.7,0.4,1.1,0.4c0.4,0,0.8-0.1,1.1-0.4c0.3-0.2,0.6-0.5,0.8-0.9s0.3-0.8,0.3-1.2V407c0-0.3,0.2-0.5,0.5-0.8
			s0.7-0.3,1.1-0.3c0.5,0,0.9,0.1,1.2,0.3s0.4,0.5,0.4,0.8v6.5c0,1-0.2,1.9-0.7,2.7c-0.5,0.8-1.1,1.5-2,2S309.1,419,308.1,419z"/>
		<path class="st2" d="M318.3,419c-0.9,0-1.6-0.3-2.3-0.9c-0.6-0.6-1-1.5-1-2.7c0-1,0.2-1.8,0.7-2.4s1.2-1,2-1.2s1.9-0.4,3-0.4h1
			v-0.4c0-0.4-0.1-0.8-0.2-1.2c-0.1-0.4-0.4-0.7-0.7-0.9c-0.3-0.3-0.7-0.4-1.3-0.4c-0.6,0-1.1,0.1-1.4,0.2c-0.3,0.1-0.6,0.3-0.8,0.4
			c-0.2,0.1-0.4,0.2-0.6,0.2c-0.3,0-0.6-0.2-0.8-0.6s-0.3-0.8-0.3-1.2c0-0.4,0.2-0.7,0.6-1c0.4-0.3,0.9-0.5,1.5-0.7s1.2-0.2,1.8-0.2
			c1.3,0,2.3,0.3,3.1,0.8c0.8,0.5,1.3,1.2,1.7,1.9c0.4,0.8,0.5,1.6,0.5,2.6v6.6c0,0.3-0.1,0.6-0.4,0.8s-0.7,0.3-1.1,0.3
			c-0.4,0-0.8-0.1-1-0.3c-0.3-0.2-0.4-0.5-0.4-0.8v-0.8c-0.4,0.6-1,1.1-1.6,1.5C319.9,418.8,319.2,419,318.3,419z M319.6,416.4
			c0.3,0,0.7-0.1,1-0.4s0.6-0.6,0.9-1c0.2-0.4,0.4-0.8,0.4-1.2v-0.6h-0.4c-0.5,0-1.1,0-1.6,0.1c-0.5,0.1-0.9,0.2-1.2,0.5
			c-0.3,0.2-0.5,0.6-0.5,1.1s0.1,0.9,0.4,1.1C318.9,416.3,319.2,416.4,319.6,416.4z"/>
		<path class="st2" d="M329,418.8c-0.4,0-0.8-0.1-1.1-0.4c-0.3-0.2-0.4-0.5-0.4-0.8V407c0-0.3,0.1-0.6,0.4-0.8
			c0.3-0.2,0.7-0.3,1.1-0.3c0.4,0,0.8,0.1,1,0.3c0.3,0.2,0.4,0.5,0.4,0.8v1.1c0.2-0.4,0.4-0.8,0.7-1.1c0.3-0.4,0.7-0.6,1.1-0.9
			c0.4-0.2,0.8-0.4,1.3-0.4h0.8c0.3,0,0.6,0.1,0.8,0.4c0.2,0.3,0.3,0.7,0.3,1.1c0,0.4-0.1,0.8-0.3,1.1c-0.2,0.3-0.5,0.4-0.8,0.4
			h-0.8c-0.5,0-0.9,0.2-1.3,0.5c-0.4,0.3-0.8,0.8-1.1,1.4c-0.3,0.6-0.4,1.3-0.4,2.1v4.8c0,0.3-0.2,0.5-0.5,0.8
			C329.9,418.7,329.5,418.8,329,418.8z"/>
		<path class="st2" d="M337.1,424.8c-0.4,0-0.8-0.1-1-0.3c-0.3-0.2-0.4-0.6-0.4-1.2c0-0.4,0.1-0.7,0.2-1s0.3-0.4,0.6-0.4
			c0.3,0,0.6-0.1,1-0.2c0.4-0.1,0.7-0.3,1.1-0.6c0.4-0.3,0.7-0.7,1-1.2c0.3-0.5,0.4-1.2,0.5-2l-4.3-9.9c-0.1-0.2-0.1-0.3-0.1-0.5
			c0-0.3,0.1-0.6,0.4-0.8s0.5-0.5,0.9-0.6c0.3-0.2,0.6-0.2,0.9-0.2c0.2,0,0.4,0,0.6,0.1c0.2,0.1,0.3,0.2,0.4,0.5l3,8.1l2.4-8.1
			c0.1-0.2,0.2-0.4,0.4-0.5c0.2-0.1,0.3-0.1,0.5-0.1c0.2,0,0.5,0.1,0.9,0.2c0.3,0.2,0.6,0.4,0.9,0.6c0.3,0.3,0.4,0.6,0.4,0.9
			c0,0.2,0,0.3-0.1,0.4l-3.6,10.1c-0.3,0.8-0.6,1.6-0.9,2.4s-0.6,1.5-1.1,2.2c-0.4,0.7-1,1.2-1.7,1.6
			C339.1,424.6,338.2,424.8,337.1,424.8z"/>
		<path class="st2" d="M354.2,418.8c-0.3,0-0.6-0.1-0.9-0.3c-0.3-0.2-0.5-0.5-0.5-0.8V415c0-0.7,0.2-1.4,0.6-2
			c0.4-0.6,0.9-1.2,1.5-1.8s1.3-1.1,1.9-1.6c0.7-0.5,1.3-1.1,1.9-1.6c0.6-0.5,1.1-1.1,1.5-1.6c0.4-0.6,0.6-1.2,0.6-1.8
			c0-0.4-0.1-0.8-0.2-1.1s-0.4-0.7-0.7-0.9s-0.8-0.4-1.3-0.4c-0.6,0-1.1,0.2-1.5,0.6c-0.4,0.4-0.7,1-0.7,1.8c0,0.3-0.1,0.6-0.4,0.9
			c-0.3,0.3-0.7,0.4-1.2,0.4c-0.4,0-0.8-0.1-1-0.4c-0.3-0.3-0.4-0.8-0.4-1.5c0-1,0.2-1.9,0.7-2.7c0.5-0.7,1.1-1.3,2-1.7
			c0.8-0.4,1.7-0.6,2.6-0.6c1,0,1.9,0.2,2.7,0.7s1.5,1.1,2,1.9c0.5,0.8,0.8,1.8,0.8,2.9c0,1-0.2,1.8-0.6,2.6
			c-0.4,0.8-0.9,1.5-1.5,2.1s-1.2,1.2-1.9,1.7c-0.7,0.5-1.3,1-1.9,1.4c-0.6,0.4-1.1,0.9-1.5,1.3c-0.4,0.4-0.6,0.9-0.6,1.3v0.7h6.9
			c0.3,0,0.5,0.1,0.7,0.4c0.2,0.3,0.3,0.7,0.3,1.1c0,0.4-0.1,0.8-0.3,1.1c-0.2,0.3-0.4,0.5-0.7,0.5H354.2z"/>
		<path class="st2" d="M366.7,418.8c-0.3,0-0.6-0.1-0.9-0.3s-0.5-0.5-0.5-0.8V415c0-0.7,0.2-1.4,0.6-2c0.4-0.6,0.9-1.2,1.5-1.8
			s1.3-1.1,1.9-1.6c0.7-0.5,1.3-1.1,1.9-1.6c0.6-0.5,1.1-1.1,1.5-1.6c0.4-0.6,0.6-1.2,0.6-1.8c0-0.4-0.1-0.8-0.2-1.1
			c-0.2-0.4-0.4-0.7-0.7-0.9c-0.3-0.2-0.8-0.4-1.3-0.4c-0.6,0-1.1,0.2-1.5,0.6s-0.7,1-0.7,1.8c0,0.3-0.1,0.6-0.4,0.9
			c-0.3,0.3-0.7,0.4-1.2,0.4c-0.4,0-0.8-0.1-1-0.4c-0.3-0.3-0.4-0.8-0.4-1.5c0-1,0.2-1.9,0.7-2.7c0.5-0.7,1.2-1.3,2-1.7
			c0.8-0.4,1.7-0.6,2.6-0.6c1,0,1.9,0.2,2.7,0.7c0.8,0.4,1.5,1.1,2,1.9c0.5,0.8,0.8,1.8,0.8,2.9c0,1-0.2,1.8-0.6,2.6
			c-0.4,0.8-0.9,1.5-1.5,2.1s-1.2,1.2-1.9,1.7c-0.7,0.5-1.3,1-1.9,1.4c-0.6,0.4-1.1,0.9-1.5,1.3c-0.4,0.4-0.6,0.9-0.6,1.3v0.7h6.9
			c0.3,0,0.5,0.1,0.7,0.4c0.2,0.3,0.3,0.7,0.3,1.1c0,0.4-0.1,0.8-0.3,1.1c-0.2,0.3-0.4,0.5-0.7,0.5H366.7z"/>
		<path class="st2" d="M380,418.8c-0.5,0-0.8-0.1-1.1-0.4c-0.3-0.2-0.4-0.5-0.4-0.8V407c0-0.3,0.1-0.6,0.4-0.8
			c0.3-0.2,0.7-0.3,1.1-0.3c0.4,0,0.7,0.1,1,0.3c0.3,0.2,0.4,0.5,0.4,0.8v0.8c0.2-0.5,0.7-1,1.2-1.4s1.3-0.6,2.1-0.6
			c0.8,0,1.5,0.2,2.1,0.7c0.6,0.5,1.2,1.2,1.5,2s0.6,1.7,0.6,2.8v6.4c0,0.4-0.2,0.7-0.5,0.9c-0.3,0.2-0.7,0.3-1.1,0.3
			c-0.4,0-0.7-0.1-1.1-0.3c-0.3-0.2-0.5-0.5-0.5-0.9v-6.4c0-0.4-0.1-0.8-0.3-1.2c-0.2-0.4-0.5-0.7-0.8-0.9c-0.3-0.2-0.7-0.4-1.1-0.4
			c-0.3,0-0.7,0.1-1,0.3s-0.6,0.5-0.8,0.8c-0.2,0.4-0.3,0.8-0.3,1.3v6.4c0,0.3-0.2,0.5-0.5,0.8C380.8,418.7,380.4,418.8,380,418.8z"
			/>
		<path class="st2" d="M395.2,419c-0.8,0-1.5-0.3-2.2-0.8c-0.7-0.5-1.2-1.2-1.6-2.1c-0.4-0.8-0.6-1.7-0.6-2.7v-2.2
			c0-1,0.2-1.9,0.6-2.8c0.4-0.8,0.9-1.5,1.6-2c0.7-0.5,1.4-0.7,2.2-0.7c0.8,0,1.4,0.2,2,0.6s0.9,0.9,1.2,1.4v-8.3
			c0-0.3,0.2-0.6,0.5-0.8c0.3-0.2,0.7-0.3,1.2-0.3c0.4,0,0.8,0.1,1.1,0.3s0.4,0.5,0.4,0.8v18.1c0,0.3-0.1,0.5-0.4,0.8
			c-0.3,0.2-0.7,0.4-1.1,0.4c-0.4,0-0.7-0.1-1-0.4c-0.3-0.2-0.4-0.5-0.4-0.8v-0.8c-0.2,0.6-0.7,1.1-1.3,1.5
			C396.7,418.8,396,419,395.2,419z M396.2,416c0.4,0,0.8-0.1,1.1-0.4c0.3-0.3,0.6-0.5,0.8-0.9c0.2-0.3,0.3-0.6,0.3-0.7v-2.7
			c0-0.5-0.1-0.9-0.3-1.3s-0.5-0.6-0.8-0.8s-0.7-0.3-1-0.3c-0.4,0-0.8,0.1-1.1,0.4c-0.3,0.2-0.6,0.5-0.8,0.9s-0.3,0.7-0.3,1.2v2.2
			c0,0.4,0.1,0.8,0.3,1.2c0.2,0.4,0.4,0.7,0.8,0.9C395.5,415.9,395.8,416,396.2,416z"/>
		<path class="st2" d="M416.2,422.3c-0.9,0-1.9-0.2-2.7-0.6c-0.9-0.4-1.7-0.9-2.4-1.7c-0.7-0.8-1.2-1.7-1.6-2.9
			c-0.4-1.2-0.6-2.5-0.6-4.1c0-1.8,0.3-3.5,0.9-4.9c0.6-1.5,1.5-2.6,2.8-3.5c1.3-0.9,2.8-1.3,4.8-1.3c1.7,0,3.2,0.4,4.4,1.1
			s2.2,1.8,2.8,3.1c0.7,1.3,1,2.9,1,4.8c0,1.1-0.1,2.1-0.4,3.1c-0.3,0.9-0.7,1.7-1.2,2.2c-0.5,0.6-1.2,0.8-2.1,0.8
			c-0.7,0-1.3-0.2-1.8-0.6s-0.7-0.8-0.8-1.4c-0.4,0.6-0.9,1-1.3,1.3c-0.5,0.3-1.1,0.5-1.7,0.5c-0.5,0-1-0.1-1.5-0.3s-0.9-0.6-1.2-1
			s-0.4-1-0.4-1.8c0-0.8,0.2-1.5,0.6-2c0.4-0.5,1-0.8,1.8-1c0.8-0.2,1.6-0.3,2.6-0.3h0.8v-0.4c0-0.6-0.2-1.1-0.5-1.4
			c-0.3-0.3-0.8-0.5-1.5-0.5c-0.5,0-0.9,0.1-1.2,0.2c-0.3,0.1-0.5,0.2-0.7,0.4c-0.2,0.1-0.3,0.2-0.5,0.2c-0.1,0-0.3-0.1-0.4-0.2
			c-0.1-0.2-0.2-0.3-0.3-0.6c-0.1-0.2-0.1-0.4-0.1-0.5c0-0.4,0.2-0.7,0.5-0.9c0.4-0.3,0.8-0.5,1.3-0.6c0.5-0.2,1.1-0.2,1.6-0.2
			c0.7,0,1.4,0.1,2,0.4c0.6,0.3,1.1,0.7,1.5,1.2s0.6,1.2,0.6,2v4.6c0.1,0.5,0.2,0.8,0.3,1c0.2,0.2,0.3,0.3,0.6,0.3
			c0.3,0,0.6-0.1,0.8-0.4c0.2-0.3,0.3-0.6,0.4-1c0.1-0.4,0.2-0.8,0.2-1.3c0-0.4,0-0.8,0-1.1c0-2.4-0.5-4.2-1.5-5.5
			c-1-1.3-2.5-1.9-4.7-1.9c-1.2,0-2.3,0.2-3.1,0.6c-0.8,0.4-1.5,1-2,1.7c-0.5,0.7-0.8,1.6-1,2.5c-0.2,0.9-0.3,1.9-0.3,2.9
			c0,1,0.1,1.9,0.3,2.7s0.5,1.6,0.9,2.3s1,1.2,1.7,1.6c0.7,0.4,1.6,0.6,2.7,0.6c0.7,0,1.2-0.1,1.6-0.2s0.8-0.2,1-0.4
			c0.3-0.1,0.5-0.2,0.6-0.2c0.3,0,0.5,0.1,0.6,0.4c0.1,0.3,0.2,0.5,0.2,0.6c0,0.3-0.2,0.5-0.5,0.7c-0.3,0.2-0.7,0.4-1.2,0.5
			s-1,0.2-1.5,0.3C417.1,422.3,416.6,422.3,416.2,422.3z M416.8,416.5c0.4,0,0.7-0.1,1.1-0.3c0.3-0.2,0.6-0.5,0.8-0.8
			c0.2-0.3,0.3-0.7,0.3-1.1v-0.8h-0.6c-0.6,0-1,0.1-1.5,0.2c-0.4,0.1-0.7,0.3-0.9,0.6s-0.3,0.6-0.3,1.1c0,0.4,0.1,0.7,0.3,0.9
			C416.2,416.4,416.5,416.5,416.8,416.5z"/>
		<path class="st2" d="M438.1,418.9c-1.1,0-2.1-0.2-2.9-0.6c-0.9-0.4-1.6-1.1-2.1-2c-0.5-0.9-0.8-2.1-0.8-3.6v-7.5
			c0-1.5,0.3-2.7,0.8-3.6c0.5-0.9,1.2-1.6,2.1-2c0.9-0.4,1.9-0.6,3.1-0.6c1,0,1.8,0.1,2.5,0.4c0.7,0.3,1.3,0.7,1.8,1.2
			c0.5,0.5,0.8,1,1,1.6c0.2,0.6,0.3,1.2,0.3,1.7c0,0.5-0.1,0.9-0.4,1.1s-0.6,0.3-1.1,0.3c-0.4,0-0.8-0.1-1.2-0.3
			c-0.3-0.2-0.5-0.5-0.5-1.1c0-0.4-0.1-0.8-0.4-1.1s-0.5-0.5-0.9-0.7s-0.8-0.2-1.3-0.2c-0.8,0-1.5,0.3-2,0.8
			c-0.5,0.5-0.7,1.3-0.7,2.4v2.9c0.4-0.5,0.9-0.9,1.4-1.1c0.6-0.2,1.2-0.3,1.8-0.3c0.9,0,1.8,0.2,2.6,0.5s1.4,0.9,1.9,1.7
			c0.5,0.8,0.7,1.9,0.7,3.3v0.4c0,1.5-0.3,2.7-0.8,3.6c-0.5,0.9-1.2,1.6-2.1,2C440.2,418.7,439.2,418.9,438.1,418.9z M438.1,416.1
			c0.8,0,1.4-0.2,1.9-0.7c0.5-0.5,0.7-1.3,0.7-2.3v-0.4c0-1.1-0.2-1.9-0.7-2.4c-0.5-0.5-1.1-0.7-1.9-0.7c-0.8,0-1.4,0.2-1.9,0.6
			c-0.5,0.4-0.7,1.2-0.7,2.2v0.6c0,1.1,0.2,1.9,0.7,2.3C436.7,415.8,437.3,416.1,438.1,416.1z"/>
		<path class="st2" d="M447.6,424.8c-0.4,0-0.8-0.1-1.1-0.4c-0.3-0.2-0.4-0.5-0.4-0.8V407c0-0.3,0.1-0.6,0.4-0.8
			c0.3-0.2,0.7-0.3,1.1-0.3s0.8,0.1,1.1,0.3c0.3,0.2,0.4,0.5,0.4,0.8v0.8c0.3-0.5,0.7-1,1.3-1.4s1.3-0.6,2.1-0.6
			c0.8,0,1.6,0.2,2.3,0.7s1.2,1.2,1.6,2s0.6,1.7,0.6,2.8v2.2c0,1-0.2,1.9-0.6,2.7c-0.4,0.8-0.9,1.5-1.6,2.1
			c-0.7,0.5-1.4,0.8-2.2,0.8c-0.7,0-1.4-0.2-2-0.6c-0.6-0.4-1-0.9-1.3-1.5v6.8c0,0.3-0.2,0.5-0.5,0.8
			C448.5,424.6,448.1,424.8,447.6,424.8z M451.4,416c0.4,0,0.8-0.1,1.1-0.4c0.3-0.2,0.6-0.6,0.8-0.9c0.2-0.4,0.3-0.8,0.3-1.2v-2.2
			c0-0.4-0.1-0.8-0.3-1.2c-0.2-0.4-0.5-0.7-0.8-0.9s-0.7-0.4-1.1-0.4c-0.4,0-0.7,0.1-1,0.3s-0.6,0.5-0.8,0.8
			c-0.2,0.4-0.3,0.8-0.3,1.3v2.7c0,0.2,0.1,0.4,0.3,0.7c0.2,0.3,0.4,0.6,0.8,0.9C450.6,415.8,451,416,451.4,416z"/>
		<path class="st2" d="M460.4,418.8c-0.5,0-0.8-0.1-1.1-0.4c-0.3-0.2-0.4-0.5-0.4-0.8V407c0-0.3,0.1-0.6,0.4-0.8
			c0.3-0.2,0.7-0.3,1.1-0.3c0.4,0,0.7,0.1,1,0.3c0.3,0.2,0.4,0.5,0.4,0.8v0.8c0.3-0.5,0.7-1,1.2-1.4c0.5-0.4,1.2-0.6,2.1-0.6
			c0.7,0,1.3,0.3,1.9,0.8c0.5,0.5,0.9,1.2,1.2,1.9c0.4-0.9,1-1.6,1.6-2s1.4-0.7,2.1-0.7c0.8,0,1.5,0.2,2.1,0.6s1.2,1,1.6,1.9
			c0.4,0.8,0.6,1.8,0.6,3v6.4c0,0.3-0.2,0.5-0.5,0.8c-0.3,0.2-0.7,0.4-1.1,0.4c-0.4,0-0.8-0.1-1.1-0.4c-0.3-0.2-0.5-0.5-0.5-0.8
			v-6.4c0-0.5-0.1-1-0.3-1.4c-0.2-0.4-0.4-0.6-0.8-0.8c-0.3-0.2-0.6-0.3-1-0.3c-0.3,0-0.6,0.1-0.9,0.3c-0.3,0.2-0.5,0.5-0.7,0.8
			c-0.2,0.4-0.3,0.8-0.3,1.3v6.4c0,0.4-0.2,0.7-0.5,0.9c-0.3,0.2-0.7,0.3-1.1,0.3c-0.4,0-0.7-0.1-1.1-0.3c-0.3-0.2-0.5-0.5-0.5-0.9
			v-6.4c0-0.5-0.1-0.9-0.3-1.3c-0.2-0.4-0.4-0.6-0.7-0.8c-0.3-0.2-0.6-0.3-1-0.3c-0.3,0-0.6,0.1-0.9,0.3s-0.5,0.5-0.7,0.8
			c-0.2,0.4-0.3,0.8-0.3,1.4v6.4c0,0.3-0.2,0.5-0.5,0.8C461.3,418.7,460.9,418.8,460.4,418.8z"/>
	</g>
</g>
</svg>
